<?xml version="1.0" encoding="utf-8"?>
<!-- Generator: Adobe Illustrator 26.2.1, SVG Export Plug-In . SVG Version: 6.00 Build 0)  -->
<svg version="1.1" id="Lager_1" xmlns="http://www.w3.org/2000/svg" xmlns:xlink="http://www.w3.org/1999/xlink" x="0px" y="0px"
	 viewBox="0 0 373.3 373.3" style="enable-background:new 0 0 373.3 373.3;" xml:space="preserve">
<style type="text/css">
	.st0{fill:#FFFFFF;}
</style>
<path class="st0" d="M253.2,115.2c-13.1,0-24.3,0-35.5,0c-5.4,0-10.6-0.8-10.6-7.5s5.2-7.5,10.6-7.5c16.9,0.1,33.9,0,50.8,0
	c7.8,0,10.4,2.5,10.4,10.2c0.1,17.2,0,34.4,0.1,51.5c0,5.2-1.1,10-7.3,10.1c-6.7,0.1-7.7-5-7.7-10.4c0-11.4,0-22.7,0-35.6
	c-2.9,2.6-4.7,4.1-6.4,5.8c-21,20.9-41.9,41.9-62.9,62.9c-1.6,1.6-4.8,4.3-6.7,4.7c-3,0.6-5.8,0.8-7.5-0.8s-2.4-4.5-1.8-7.5
	c0.4-1.9,3.8-5,5.4-6.6l62.9-62.8C248.8,120,250.4,118.2,253.2,115.2z"/>
<path class="st0" d="M111.9,257.2c17.8-18,35.7-35.9,53.5-53.9c5.6-5.7,13.1-13.2,18.7-18.8c3.6-3.5,5.8-3.5,9.9,0.7s4.2,6,0.7,9.5
	c-21.6,21.7-45.4,45.5-67.1,67.1c-1.9,1.9-4.7,2.8-7,4.1l2.1,3.1c10.3,0,20.7,0,31,0c2.7,0,5.9-0.6,8.1,0.6c2.4,1.4,5.7,4.7,5.4,6.7
	c-0.4,2.5-3.9,6.5-6.2,6.6c-19.7,0.5-39.3,0.5-59,0c-2.1-0.1-5.8-4.4-5.8-6.8c-0.5-18.9-0.3-37.8-0.3-56.8c0-4.8,2.8-8.4,7.2-7.3
	c2.8,0.7,6.6,5,6.8,7.9c0.8,12.1,0.3,24.3,0.3,36.5L111.9,257.2z"/>
</svg>
