<?xml version="1.0" encoding="utf-8"?>
<!-- Generator: Adobe Illustrator 27.3.1, SVG Export Plug-In . SVG Version: 6.00 Build 0)  -->
<svg version="1.1" id="Lager_1" xmlns="http://www.w3.org/2000/svg" xmlns:xlink="http://www.w3.org/1999/xlink" x="0px" y="0px"
	 viewBox="0 0 373.3 373.3" style="enable-background:new 0 0 373.3 373.3;" xml:space="preserve">
<style type="text/css">
	.st0{fill:#FFFFFF;}
</style>
<path class="st0" d="M218.1,171.5c13.1,0,24.3,0,35.5,0c5.4,0,10.6,0.8,10.6,7.5s-5.2,7.5-10.6,7.5c-16.9-0.1-33.9,0-50.8,0
	c-7.8,0-10.4-2.5-10.4-10.2c-0.1-17.2,0-34.4-0.1-51.5c0-5.2,1.1-10,7.3-10.1c6.7-0.1,7.7,5,7.7,10.4c0,11.4,0,22.7,0,35.6
	c2.9-2.6,4.7-4.1,6.4-5.8c21-20.9,41.9-41.9,62.9-62.9c1.6-1.6,4.8-4.3,6.7-4.7c3-0.6,5.8-0.8,7.5,0.8c1.7,1.6,2.4,4.5,1.8,7.5
	c-0.4,1.9-3.8,5-5.4,6.6L224.3,165C222.5,166.7,220.9,168.5,218.1,171.5z"/>
<path class="st0" d="M154.8,212.1c-13.1,0-24.3,0-35.5,0c-5.4,0-10.6-0.8-10.6-7.5s5.2-7.5,10.6-7.5c16.9,0.1,33.9,0,50.8,0
	c7.8,0,10.4,2.5,10.4,10.2c0.1,17.2,0,34.4,0.1,51.5c0,5.2-1.1,10-7.3,10.1c-6.7,0.1-7.7-5-7.7-10.4c0-11.4,0-22.7,0-35.6
	c-2.9,2.6-4.7,4.1-6.4,5.8c-21,20.9-41.9,41.9-62.9,62.9c-1.6,1.6-4.8,4.3-6.7,4.7c-3,0.6-5.8,0.8-7.5-0.8c-1.7-1.6-2.4-4.5-1.8-7.5
	c0.4-1.9,3.8-5,5.4-6.6l62.9-62.8C150.4,216.9,152,215.1,154.8,212.1z"/>
</svg>
