<?xml version="1.0" encoding="utf-8"?>
<!-- Generator: Adobe Illustrator 27.3.1, SVG Export Plug-In . SVG Version: 6.00 Build 0)  -->
<svg version="1.1"
	 id="svg3797" xmlns:sodipodi="http://sodipodi.sourceforge.net/DTD/sodipodi-0.dtd" xmlns:rdf="http://www.w3.org/1999/02/22-rdf-syntax-ns#" xmlns:cc="http://creativecommons.org/ns#" xmlns:dc="http://purl.org/dc/elements/1.1/" xmlns:inkscape="http://www.inkscape.org/namespaces/inkscape" xmlns:svg="http://www.w3.org/2000/svg" inkscape:version="0.48.5 r10040" sodipodi:docname="height.svg"
	 xmlns="http://www.w3.org/2000/svg" xmlns:xlink="http://www.w3.org/1999/xlink" x="0px" y="0px" viewBox="0 0 32 32"
	 style="enable-background:new 0 0 32 32;" xml:space="preserve">
<style type="text/css">
	.st0{fill:none;stroke:#FFFFFF;stroke-width:1.5;stroke-dasharray:1.5,1.5;stroke-dashoffset:1;}
	.st1{fill:none;stroke:#000000;stroke-width:2;}
	.st2{fill:#00FF00;stroke:#000000;stroke-width:0.6667;stroke-miterlimit:2.4444;}
	.st3{fill:#FFFFFF;stroke:#000000;stroke-width:0.6667;stroke-miterlimit:2.4444;}
</style>
<sodipodi:namedview  bordercolor="#666666" borderopacity="1.0" id="base" inkscape:current-layer="layer1" inkscape:cx="13.328662" inkscape:cy="12.909333" inkscape:document-units="px" inkscape:grid-bbox="true" inkscape:pageopacity="0.0" inkscape:pageshadow="2" inkscape:window-height="1018" inkscape:window-maximized="1" inkscape:window-width="1920" inkscape:window-x="-8" inkscape:window-y="-8" inkscape:zoom="15.836083" pagecolor="#ffffff" showgrid="true">
	<inkscape:grid  id="grid3805" type="xygrid"></inkscape:grid>
</sodipodi:namedview>
<g id="layer1" inkscape:groupmode="layer" inkscape:label="Layer 1">
	<path id="path3007" inkscape:connector-curvature="0" class="st0" d="M16,9.5v14"/>
	<path id="path3829" inkscape:connector-curvature="0" class="st1" d="M-30,19l14-14"/>
	<path id="path3807-4" sodipodi:cx="11" sodipodi:cy="22" sodipodi:rx="6" sodipodi:ry="6" sodipodi:type="arc" class="st2" d="
		M-11.8,4.5c0,2-1.6,3.7-3.7,3.7s-3.7-1.6-3.7-3.7s1.6-3.7,3.7-3.7S-11.8,2.5-11.8,4.5z"/>
	<path id="path3807" sodipodi:cx="11" sodipodi:cy="22" sodipodi:rx="6" sodipodi:ry="6" sodipodi:type="arc" class="st2" d="
		M-28.8,21.5c0,2-1.6,3.7-3.7,3.7s-3.7-1.6-3.7-3.7s1.6-3.7,3.7-3.7S-28.8,19.5-28.8,21.5z"/>
	<path id="path3003" sodipodi:cx="11" sodipodi:cy="22" sodipodi:rx="6" sodipodi:ry="6" sodipodi:type="arc" class="st3" d="
		M19.7,8c0,2-1.6,3.7-3.7,3.7S12.3,10,12.3,8S14,4.3,16,4.3S19.7,6,19.7,8z"/>
	<path id="path3005" sodipodi:cx="11" sodipodi:cy="22" sodipodi:rx="6" sodipodi:ry="6" sodipodi:type="arc" class="st3" d="
		M19.7,25c0,2-1.6,3.7-3.7,3.7S12.3,27,12.3,25s1.6-3.7,3.7-3.7S19.7,23,19.7,25z"/>
</g>
</svg>
