<?xml version="1.0" encoding="utf-8"?>
<!-- Generator: Adobe Illustrator 27.3.1, SVG Export Plug-In . SVG Version: 6.00 Build 0)  -->
<svg version="1.1" id="Layer_2_00000015315045511010349410000003565611369312594066_"
	 xmlns="http://www.w3.org/2000/svg" xmlns:xlink="http://www.w3.org/1999/xlink" x="0px" y="0px" viewBox="0 0 78.8 73.7"
	 style="enable-background:new 0 0 78.8 73.7;" xml:space="preserve">
<g id="Layer_1-2">
	<g>
		<path d="M0,43.7c0-0.1,0-0.2,0-0.3c0.1-0.1,0.3-0.3,0.3-0.4c0-0.5,0-0.9,0-1.4c0-0.2,0.1-0.3,0.2-0.5c0.2-0.3,0.5-0.7,0.7-1
			c0.4-0.6,0.3-1.3,0.1-1.9c-0.1-0.4-0.1-0.8-0.2-1.2C1,36.6,1,36,0.8,35.6c-0.3-0.5-0.3-1-0.1-1.3c0.3-0.6,0.2-1.2,0.2-1.9
			c0-0.2,0-0.4,0.1-0.5c0.1-0.2,0.1-0.4,0.2-0.7c0.1-0.2,0.1-0.4,0.2-0.5c0.1-0.3,0.2-0.6,0.4-0.9c0.1-0.4,0.3-0.7,0.5-1
			C2.4,28.4,2.7,28,3,27.6c0-0.1,0-0.2,0.1-0.3c0.1-0.4,0.2-0.7,0.4-1c0.3-0.4,0.6-0.8,0.9-1.2c0-0.1,0-0.2,0.1-0.3
			c0.1-0.2,0.2-0.4,0.3-0.6c0.2-0.3,0.4-0.6,0.5-1c0.1-0.5,0.3-0.9,0.7-1.3c0.1-0.1,0.2-0.2,0.2-0.3c-0.1-0.5,0.2-0.7,0.5-1
			c0.1-0.1,0.2-0.2,0.3-0.4c0.2-0.6,0.6-1.1,1.1-1.6c0.2-0.1,0.3-0.4,0.4-0.6c0.2-0.3,0.4-0.6,0.6-0.9c0.3-0.4,0.7-0.9,1-1.3
			c0.5-0.7,1-1.4,1.5-2c0.5-0.6,1.1-1,1.5-1.7c0.4-0.7,1-1.3,1.6-1.9c0.4-0.4,0.7-0.9,1.3-1c0.1,0,0.2-0.1,0.3-0.3
			c0.1-0.3,0.3-0.4,0.6-0.6c0.7-0.5,1.3-1.1,1.9-1.6c0.2-0.2,0.5-0.4,0.8-0.6c0.2-0.1,0.5-0.2,0.7-0.4c0.8-0.4,1.5-0.8,2.2-1.3
			c0.7-0.4,1.5-0.4,2-1c0.2-0.2,0.6-0.3,0.9-0.4c0.3-0.1,0.5-0.1,0.8-0.2c0.2-0.1,0.5-0.2,0.8-0.3c0.4-0.1,0.7-0.3,1.1-0.4
			c0.4-0.1,0.9-0.3,1.3-0.4c0.5-0.1,0.9-0.2,1.4-0.4c0.6-0.1,1.1-0.4,1.7-0.5c0.6-0.1,1.2-0.2,1.9-0.3c0,0,0.1-0.1,0.1-0.1
			c0.2-0.1,0.5-0.2,0.7-0.2c1.1,0,2.2,0,3.3,0c0.1,0,0.3,0,0.4-0.1C39,0.2,39.2,0,39.5,0c3,0,5.9,0,8.9,0c0.7,0,1.4,0.2,2.1,0.3
			c0,0,0.1,0,0.1,0.1c0.2,0.1,0.5,0.2,0.7,0.2c0.3,0,0.7-0.1,0.9,0.1c0.4,0.3,0.8,0.2,1.2,0.2c0.3,0,0.6,0,0.9,0.1
			c0.5,0.1,1,0.3,1.6,0.5c0.4,0.1,0.8,0.2,1.2,0.4c0.8,0.3,1.5,0.7,2.2,1c1,0.5,1.9,1,2.9,1.6c0.4,0.2,0.7,0.5,1.1,0.7
			c0.4,0.3,0.9,0.5,1.2,0.8c0.6,0.5,1.1,1.1,1.5,1.7c0.6,0.9,1.7,1.5,2.2,2.6c0.2,0.4,0.6,0.8,0.9,1.2c0.2,0.4,0.5,0.8,0.7,1.2
			c0.2,0.4,0.4,0.9,0.6,1.2c0.6,0.7,0.9,1.6,1.3,2.3c0.2,0.5,0.4,1,0.6,1.5c0.4,1,0.9,1.9,1.3,2.9c0.3,0.6,0.6,1.3,0.9,2
			c0.4,0.7,0.2,1.8-0.4,2.2c-0.2,0.1-0.4,0.2-0.6,0.3c-0.8-0.2-1.1-0.8-1.3-1.4c-0.1-0.4-0.3-0.8-0.5-1.2c-0.2-0.4-0.5-0.8-0.5-1.2
			c-0.1-0.4-0.3-0.6-0.5-0.9c-0.3-0.3-0.5-0.7-0.7-1.1c-0.2-0.4-0.3-0.8-0.5-1.2c-0.2-0.5-0.5-1-0.6-1.5c-0.1-0.6-0.4-0.8-0.7-1.1
			c-0.1-0.2-0.3-0.3-0.4-0.5c-0.5-1.1-0.9-2.3-1.4-3.4C66,10.5,65.7,9.7,65,9.2c-0.3-0.2-0.4-0.6-0.7-0.9C64.2,8.1,64,8,63.8,7.9
			C63.5,7.6,63.2,7.3,63,7c-0.1-0.1-0.1-0.2-0.2-0.3c-0.5-0.2-0.9-0.8-1.6-0.6c0,0-0.1,0-0.1,0c-1.1-0.5-2.2-1.2-3.3-1.7
			c-0.8-0.3-1.5-0.6-2.3-0.5c-0.3,0-0.8,0.1-1,0c-0.7-0.5-1.6,0-2.3-0.5c-0.3-0.2-0.9,0-1.3,0c-0.1,0-0.3,0-0.4-0.1
			c-0.2,0-0.4-0.1-0.6-0.2c-0.1,0-0.3,0-0.4,0c-0.6-0.5-1.2-0.2-1.8-0.3c-0.3,0-0.5-0.1-0.8-0.1c-0.2,0-0.4,0.1-0.6,0.1
			c-0.6,0-1.2-0.1-1.8-0.2c-1.3-0.3-2.6,0.1-4,0.2c0,0-0.1,0-0.1,0c-0.3,0.1-0.6,0.2-0.9,0.2c-0.3,0-0.6,0-0.9,0
			c-0.6,0.1-1.2,0.1-1.8,0.4c-0.5,0.2-0.8,0.3-1.3,0c-0.3-0.2-0.7-0.3-1.1-0.3c-0.1,0-0.3,0-0.4,0c-0.5,0.2-1,0.3-1.5,0.5
			c-0.4,0.1-0.8,0.3-1.2,0.5c-0.4,0.1-0.9,0.2-1.3,0.4c-0.2,0.1-0.5,0.1-0.7,0.2c-0.3,0.1-0.5,0.2-0.8,0.3c-0.4,0.1-0.8,0.2-1.2,0.3
			c-0.3,0.1-0.6,0.2-0.9,0.3c-0.7,0.5-1.5,0.7-2.2,1.2c-0.7,0.5-1.5,0.9-2.1,1.5c-0.1,0.1-0.3,0.2-0.5,0.2c-0.7,0.1-1,0.4-0.9,1.1
			c0,0.2,0.2,0.4,0.4,0.6c0.8,0.9,1.6,1.7,2.3,2.6c0.2,0.3,0.4,0.6,0.6,0.9c0.2,0.3,0.2,0.7,0.4,1c0.1,0.3,0.2,0.6,0.5,0.8
			c0.4,0.3,1.4,0,1.7-0.4c0.5-0.6,1.2-0.9,1.8-1.3c0.4-0.2,0.8-0.6,0.7-1.2c0-0.5-0.4-0.7-0.8-1c-0.5-0.4-1-0.8-1.4-1.3
			c-0.5-0.6-0.8-1.3-1.1-1.9c-0.1-0.3-0.4-0.7-0.3-0.9C26,7,26.3,6.1,27.4,6.2c0.1,0,0.1,0,0.2,0c0.3-0.1,0.6-0.2,1-0.2
			c0.6,0,0.9,0.2,0.8,0.8c0,0.5,0.1,1,0.4,1.3c0.5,0.7,0.5,1.5,0.7,2.2c0.1,0.3,0.8,1,1.2,0.9c0,0,0.1,0,0.1,0
			c0.2-0.3,0.4-0.5,0.7-0.8c0.1-0.1,0.1-0.2,0.2-0.3c0.2-0.1,0.3-0.2,0.5-0.3s0.4-0.2,0.6-0.2c0.6-0.1,1,0.2,1.5,0.4
			c0.1,0.1,0.5,0,0.5,0c0-0.4,0.1-0.8,0-1.1c-0.2-0.6-0.5-1.2-0.5-1.9c0-0.2,0-0.5,0-0.7c-0.1-0.8,0.2-1.3,0.8-1.8
			c0.5-0.4,1.2-0.2,1.4,0.4c0,0.1,0,0.2,0.1,0.2c0.2,0.2,0.2,0.4,0,0.6c-0.1,0.3-0.1,0.7,0,1c0,0.2,0.2,0.4,0.2,0.7
			c0,0.3,0,0.6,0,0.9c-0.1,0.7-0.1,1.4,0.8,1.7c0,0,0.1,0.1,0.1,0.1c0.2-0.1,0.3,0,0.5,0c0.1,0,0.3,0.1,0.4,0c0.4-0.2,0.8-0.4,0.7-1
			c0-0.1,0.1-0.3,0.2-0.5c-0.4-0.4-0.3-1-0.2-1.3c0.3-0.5,0.1-1,0.2-1.5c0.1-0.7,0.1-1.3,0.9-1.7c0.4-0.2,1.3-0.1,1.5,0.2
			c0.2,0.4,0.3,0.8,0.4,1.2c0.1,0.5-0.1,1,0.3,1.5c0.1,0.1,0,0.4,0,0.5c-0.1,0.3-0.3,0.6-0.5,0.9c0.3,0.4,0.3,0.7,0.1,0.9
			c-0.2,0.2,0,1,0.3,1.1c0.4,0.1,0.8,0.2,1.2,0.3c0.1,0,0.4,0,0.4,0.1c0.3,0.3,0.7,0.2,1.1,0.2c0.2,0,0.4,0.2,0.5,0.2
			c0.3,0,0.7,0.1,0.9,0c0.3-0.1,0.4-0.4,0.4-0.8c0-0.4-0.1-0.9,0.2-1.3c0.1-0.1,0.2-0.4,0.3-0.6C48.8,8,49,7.4,49.2,6.8
			c0.1-0.2,0.2-0.4,0.3-0.6c0.2-0.5,0.7-0.8,1.2-0.9c0.5,0,0.6,0.3,0.9,0.6c0.5,0.5,0.5,1.1,0.2,1.7c-0.2,0.4-0.4,0.8-0.4,1.3
			c0.1,0.6,0,1.1,0,1.7c0,0.1,0,0.3,0,0.4c-0.3,0.3-0.2,0.7-0.2,1c0,0.6,0.2,0.8,0.8,0.8c0.3,0,0.7,0,1,0.2c0.3,0.3,0.7,0,0.7-0.4
			c0-0.2,0-0.4,0.1-0.6c0.1-0.3,0.2-0.5,0.2-0.8c0.1-0.6,0.2-1.3,0.3-1.9c0,0,0,0,0,0c0.3-0.7,0.5-1.5,0.5-2.3c0-0.3,0.6-0.9,0.9-1
			c0.4,0,0.9,0,1.3,0c0.6,0,0.9,0.4,0.9,1c0,0.6,0.1,1.1-0.2,1.7c-0.2,0.4-0.2,1-0.3,1.4c-0.1,0.4-0.2,0.8-0.4,1.1
			c-0.2,0.4-0.5,0.9-0.7,1.3c-0.2,0.4,0,1,0.3,1.2c0.3,0.2,1.5,0.1,1.7-0.2c0.5-0.6,1-1.1,1.5-1.7c0.2-0.2,0.3-0.4,0.4-0.6
			c0.1-0.2,0.3-0.4,0.5-0.4c0.8,0,1.7-0.2,2.4,0.3c0,0.3-0.1,0.6-0.2,0.9c-0.1,0.4-0.1,0.9-0.7,1.1c-0.1,0-0.1,0.1-0.2,0.2
			c-0.8,0.8-1.7,1.7-2.5,2.5c-0.4,0.4-0.3,1,0.3,1.2c0.1,0,0.2,0.1,0.3,0.2c0.1,0.2,0.2,0.4,0.4,0.6c0.2,0.2,0.3,0.5,0.5,0.7
			c0.2,0.2,0.3,0.6,0.7,0.4c0.3-0.2,0.6-0.4,0.9-0.6c0.3-0.2,0.6-0.4,0.8-0.4c0.6-0.1,1.1-0.3,1.5-0.8c0.3-0.4,0.7-0.7,1.1-1
			c0.1-0.1,0.3-0.2,0.4-0.1c0.6,0.2,1,1.7,0.6,2.2c-0.4,0.5-0.9,0.8-1.5,0.9c-0.4,0-0.8,0.1-1.2,0.3c-0.4,0.1-0.7,0.4-1,0.6
			c0.2,0.6,0.3,1,0.5,1.5c0.2,0.5,0.3,0.9,0.5,1.3c0.1,0.2,0.3,0.5,0.3,0.7c0.1,0.5,0.4,0.7,0.9,0.6c0.3,0,0.6-0.2,0.9-0.3
			c0.4,0,0.8-0.1,1.2,0c0.2,0,0.6,0.2,0.6,0.4c0.3,0.8,0.8,1.3,1.3,1.8c0.2,0.2,0.2,0.8,0,1.1c-0.3,0.6-1,0.5-1.5,0.8
			c-0.3,0.2-0.6,0.2-0.9,0.3c-0.1,0-0.2,0.3-0.2,0.4c0.2,0.3,0.3,0.7,0.6,0.9c0.5,0.5,0.6,1.1,0.7,1.8c0.1,0.4,0,0.9,0.2,1.3
			c0.2,0.4,0.4,0.4,0.7,0.3c0.3-0.1,0.5-0.2,0.8-0.4c0.7-0.4,1.3-0.9,1.9-1.3c0.6-0.4,1.3-0.3,1.9-0.1c0.6,0.2,1.2,0.8,1.8,1.2
			c0-0.3-0.1-0.6-0.2-1c0.5-0.5,1.2-0.7,1.9-0.5c0.2,0,0.4,0.3,0.5,0.5c0.2,0.5,0.2,1.1,0.3,1.7c0,0.1,0,0.2,0,0.2
			c0.3,0.6,0.5,1.1,0.5,1.8c0,0.1,0,0.1,0,0.2c0.4,0.3,0.2,0.6,0.2,1c0,1,0,2,0,2.9c0,0.1,0,0.3-0.1,0.4c-0.1,0.2-0.2,0.4-0.2,0.6
			c0,1.4,0,2.8,0,4.1c0,0.2,0,0.3,0,0.5c-0.1,0.3-0.2,0.6-0.2,1c0,0.5,0,1,0,1.5c0,0.1,0,0.3-0.1,0.4c-0.1,0.2-0.2,0.5-0.2,0.7
			c-0.1,0.8-0.2,1.7-0.3,2.5c0,0,0,0.1-0.1,0.1c-0.1,0.3-0.2,0.5-0.2,0.8c-0.1,0.9-0.2,1.8-0.3,2.7c0,0,0,0.1,0,0.1
			c-0.3,0.6-0.5,1.2-0.8,1.9c-0.1,0.2-0.2,0.4-0.3,0.7c-0.1,0.5-0.1,1-0.3,1.4c-0.4,0.8-0.8,1.5-0.8,2.4c0,0.1-0.1,0.2-0.1,0.2
			c-0.2,0.4-0.5,0.8-0.7,1.2c-0.4,0.6-0.6,1.3-1.1,1.8c-0.4,0.3-0.6,0.7-0.9,1.1c-0.3,0.5-0.5,1.1-1,1.5c-0.6,0.5-1.3,1-2,1.4
			c-0.4,0.2-0.8,0.4-1.2,0.6c-0.7,0.2-1.3,0.5-1.9,0.9c-0.2,0.1-0.4,0.2-0.6,0.2c-0.7,0.1-1.4-0.1-2,0.3c-0.3,0.2-0.8,0.3-1.2,0.5
			c-0.8,0.2-1.4,0.9-2.2,1c-0.3,0-0.7,0.2-1,0.3c-0.8,0.3-1.5,0.7-2.3,1c-0.3,0.1-0.6,0.2-0.9,0.3c-0.3,0.1-0.5,0.3-0.7,0.5h-0.8
			c0-0.1,0-0.2-0.1-0.2c-0.4-0.1-0.9-0.2-1.3-0.4c-0.2,0-0.3,0-0.5-0.1c-0.2-0.1-0.5-0.2-0.7-0.2c-1.3,0-2.5,0-3.8,0
			c-0.4,0-0.9-0.2-1.3-0.3c-0.1,0-0.1-0.2-0.1-0.3c0-0.6,0-1.2,0-1.8c0-0.1,0.1-0.3,0.2-0.3c0.6,0,1.2-0.2,1.8,0.1
			c0.2,0.1,0.6,0.1,0.9,0c0.1,0,0.1-0.4,0.1-0.6c0-0.6,0-1.3,0-1.9c0-0.1,0-0.3-0.1-0.4c-0.1-0.3-0.2-0.5-0.2-0.8c0-0.3,0-0.6,0-0.9
			c0-0.1-0.1-0.3-0.2-0.3c-0.3-0.1-0.6-0.2-0.9-0.3c-0.1,0-0.4-0.1-0.4,0c-0.3,0.3-0.7,0.2-1,0.2c-0.1,0-0.3,0-0.4,0
			c-0.4,0.4-1,0.2-1.5,0.2c-0.2,0-0.4-0.1-0.6-0.1c-0.2-0.1-0.4-0.1-0.6-0.2c-0.2-0.6-0.7-0.7-1.1-0.3c0.4,0.1,0.8,0.2,1.1,0.3
			c0,0.1,0,0.1,0,0.2c0.4,0.5,0.8,1,1.2,1.5c0.1,0.1,0.2,0.3,0.2,0.4c0,0.4-0.2,0.7-0.3,1c-0.1,0.5-0.2,1-0.3,1.4
			c-0.1,0.3-0.2,0.7-0.3,0.9c-0.6,0.9-1.6,1.4-2.7,1.5c-0.3,0-0.7-0.2-1-0.3c-0.2,0-0.3-0.1-0.5-0.2c-0.2-0.2-0.4-0.5-0.7-0.6
			c-0.5-0.2-0.6-0.5-0.6-0.9c0-0.3,0-0.7-0.1-1c-0.3-0.4-0.2-0.9-0.1-1.3c0.2-0.6,0.6-1.1,0.9-1.7c0.3-0.7,1.1-1.3,2-1.2
			c0.1,0,0.2-0.1,0.3-0.1c0-0.1-0.1-0.1-0.1-0.1c0,0-0.1-0.1-0.1-0.1c-0.7-0.1-1.4,0.1-1.9,0.6c-0.3,0.3-0.6,0.7-1,0.9
			c-0.2,0.1-0.4,0.1-0.7,0.1c-0.1,0-0.2-0.3-0.2-0.4c0-0.3,0.1-0.6,0.1-0.9c-0.5-0.6-0.5-0.6-1.3-0.6c-0.1,0-0.3,0-0.4-0.1
			c-0.2-0.1-0.5-0.1-0.7-0.2c-0.1,0-0.3,0-0.4-0.1c-0.2-0.1-0.5-0.2-0.7-0.2c-0.9-0.1-1.8,0.2-2.7-0.3c-0.5-0.3-1-0.4-1.6-0.5
			c-0.3-0.1-0.7-0.1-0.9,0c-0.9,0.6-1.2,1.6-1.5,2.6c-0.1,0.4,0,0.9,0,1.4c0,0.1,0,0.3,0.1,0.4c0.4,0.1,0.8,0.2,1.2,0.3
			c0.3,0.1,0.6,0,0.9,0.1c0.2,0,0.5,0.2,0.7,0.2c0.8-0.1,1.6,0.1,2.4-0.2c0.8-0.3,1.7,0,2.5,0.3c0.5,0.2,1.1,0.4,1.6,0.5
			c0.3,0.1,0.4,0.2,0.4,0.5c0,0.4,0,0.8,0,1.2c0,0.5-0.1,0.6-0.6,0.6c-0.5,0-1.1-0.1-1.5,0.1c-0.5,0.2-0.9,0.2-1.4,0.2
			c-0.5,0-0.9,0-1.4,0c-0.1,0-0.3,0-0.4,0.1c-0.7,0.4-1.5,0.2-2.2,0.1c-0.4-0.1-0.7-0.2-1.1-0.2c-0.2,0-0.3-0.1-0.5-0.2
			c-0.4-0.2-0.8-0.5-1.3-0.4c-0.6,0.1-1.2,0.1-1.8,0.2c-1,0.3-2.1-0.3-3.1-0.3c0,0,0,0,0,0c-0.6-0.3-1.3-0.6-2-0.5
			c-0.1,0-0.1,0-0.2,0c-0.3-0.1-0.6-0.2-0.9-0.2c-0.2-0.1-0.4-0.1-0.6-0.2c-0.3-0.1-0.6-0.2-0.8-0.4c-0.2-0.1-0.5-0.2-0.7-0.3
			c-0.1-0.1-0.3-0.2-0.4-0.2c-0.5-0.4-1.3-0.3-1.5-1.1c0-0.1-0.1-0.2-0.2-0.2c-0.9-0.3-1.3-1.1-1.9-1.7c-0.2-0.2-0.4-0.3-0.5-0.5
			c-0.4-0.6-0.7-1.3-1.4-1.7C10.3,63,9.7,62.6,9,62.7c-0.1,0-0.3-0.1-0.4-0.2c-0.4-0.4-0.7-0.9-1-1.3c-0.2-0.2-0.4-0.5-0.3-0.8
			c0.1-0.4,0.3-0.7,0.4-1c0.1-0.2,0.2-0.4,0.3-0.5c0.7-0.4,1.5-0.8,2.2-1.1c0.3-0.1,0.6-0.2,0.9-0.3c0.6-0.1,1.3,0,1.8-0.3
			c0.7-0.4,1.5-0.4,2.2-0.8c0.1-0.1,0.3-0.2,0.4-0.2c0.6-0.1,1.2,0.1,1.8-0.3c0.3-0.2,0.7-0.2,1-0.4c0.3-0.2,0.5-0.5,0.1-0.8
			c0,0-0.1-0.1-0.1-0.2c0.1-0.4-0.2-0.7-0.5-0.9c-0.2-0.1-0.4-0.2-0.6-0.4c-0.5-0.3-1.1-0.2-1.6-0.1c-0.3,0-0.5,0.2-0.8,0.2
			c-0.5,0-0.9,0-1.4,0c-0.1,0-0.3,0-0.4,0.1c-0.6,0.2-1.2,0.5-1.8,0.5c-0.7,0-1.3,0.2-2,0.3c-0.1,0-0.1,0.1-0.2,0.1
			c-0.6,0.2-1.1,0.6-1.7,0.7c-0.9,0-1.9,0.3-2.8-0.2c0.1-0.5-0.1-0.7-0.5-0.9c0-0.2,0-0.4,0-0.7c-0.1-0.5,0.1-0.8,0.4-1
			c0.3-0.2,0.6-0.2,0.9-0.3c0.5-0.2,1-0.4,1.6-0.5c0.6-0.1,1.2,0,1.8-0.2c0.8-0.2,1.6,0,2.4-0.3c0.5-0.2,1.1,0,1.7-0.3
			c0.6-0.3,1.3-0.2,1.9-0.3c0.7-0.1,1.1-0.9,0.8-1.5c-0.1-0.1-0.1-0.3-0.1-0.4c-0.1-0.5-0.2-0.9-0.3-1.4c0,0,0-0.1-0.1-0.1
			c-0.2-0.1-0.4-0.3-0.6-0.3c-0.5,0-1-0.1-1.4,0.1c-0.5,0.2-1,0.5-1.6,0.5c-0.1,0-0.3,0.1-0.4,0.1c-0.6,0.4-1.4,0.6-2.1,0.6
			c-1.2,0-2.5,0.3-3.8-0.2c-0.6-0.2-1.1-0.4-1.5-0.8c-0.1-0.1-0.3-0.2-0.5-0.3c0-0.5,0.1-1,0.3-1.5c0.2-0.7,0.7-1.1,1.3-0.7
			c0.4,0.2,0.7,0.2,1.1,0.2c0.2,0,0.3,0.1,0.5,0.2c0.2,0,0.3,0.1,0.5,0.1c1.3,0,2.5,0,3.8,0c0.1,0,0.2,0,0.4,0
			c0.3-0.1,0.6-0.2,0.9-0.2c0.6,0,1.1,0.1,1.7-0.3c0.3-0.2,0.6-0.4,0.6-0.8c0-0.5,0-1,0-1.5c0-0.5-0.2-0.8-0.8-0.8
			c-0.3,0-0.5-0.1-0.8-0.2c-0.3,0.2-0.6,0.3-1,0c-0.1-0.1-0.1-0.1-0.2-0.1c-1.2-0.2-2.3,0.2-3.5,0.3c-0.1,0-0.1,0.1-0.2,0.1
			c-0.4,0.2-0.9,0.5-1.4,0.5c-0.5-0.1-0.9-0.1-1.4,0c-0.8,0.1-1.3-0.2-1.8-0.8c-0.3-0.3-0.2-0.9,0-1.2c0.4-0.6,1.1-0.8,1.8-1.1
			c0.2-0.1,0.4-0.2,0.6-0.3c0.4-0.1,0.8-0.2,1.3-0.3c0.5-0.2,1-0.4,1.5-0.5c1.2-0.2,2.3,0,3.5,0.3c0.4,0.1,0.8,0.3,1.1,0.5
			c0.4,0.2,0.9-0.2,0.9-0.6c0-1.4,0-2.7,0-4.1c0-0.3-0.2-0.6-0.4-0.8c-0.2-0.2-0.6-0.3-1-0.3c-0.3,0-0.7-0.1-1,0.1
			c-0.3,0.2-0.5,0.3-0.7,0.1c-0.4,0-0.8,0.2-1,0.1c-0.3-0.2-0.7-0.2-1-0.2c-0.1,0-0.3,0-0.4,0c-0.7-0.2-1.3-0.3-2-0.5
			c-0.3-0.1-0.5-0.2-0.8-0.2c-0.5,0-0.4-0.4-0.4-0.7c0-0.1-0.1-0.2-0.1-0.2c0.1-0.3,0.1-0.6,0.2-0.8c0.3-0.2,0.7-0.3,0.9-0.5
			c0.4-0.3,0.7-0.7,1.3-0.6c0.1,0,0.2,0,0.2,0c0.3-0.1,0.5-0.2,0.8-0.2c0.4,0,0.9,0,1.3,0c0.1,0,0.3,0,0.4,0.1
			c0.3,0.1,0.5,0.2,0.8,0.2c0.5,0,0.9,0,1.4,0c0.4,0.1,0.9,0.2,1.2,0.4c0.4,0.2,0.7,0.5,1,0.7c0.2-0.1,0.4-0.1,0.6-0.2
			c0.4-0.4,0.8-0.7,1-1.2c0.2-0.5,0.2-1.1,0.3-1.7c0,0,0-0.1,0-0.1c0.4-0.3,0.3-0.8,0.2-1.1c-0.1-0.5-0.2-1-0.7-1.2
			c-0.5-0.2-1.1-0.3-1.6-0.3c-0.7,0-1.4-0.1-2-0.5c-0.4-0.3-0.9-0.4-1.3-0.6c-0.2-0.1-0.5-0.2-0.7-0.3c-0.5-0.4-1-0.3-1.2,0.3
			c0,0.1-0.1,0.2-0.2,0.3c-0.3,0.4-0.6,0.8-0.9,1.2c0,0.1,0,0.2-0.1,0.3c-0.1,0.2-0.1,0.4-0.2,0.5c-0.2,0.5-0.4,0.9-0.6,1.4
			C7,27,7,27.4,6.8,27.7c-0.4,0.6-0.9,1.1-1.3,1.6c-0.1,0.2-0.2,0.5-0.3,0.7c-0.1,0-0.2,0.1-0.3,0.2c-0.2,0.3-0.5,0.6-0.7,1
			c-0.3,0.6-0.6,1.3-0.7,2.1c0,0.1,0,0.2,0,0.3c-0.4,0.4-0.2,0.8-0.2,1.3c0,0.5,0,1,0,1.5c0,0.2,0,0.3-0.1,0.5
			c-0.2,0.3-0.2,0.6,0,0.9c0.1,0.1,0,0.4,0,0.6c-0.1,0.4-0.4,0.7-0.4,1c-0.1,0.8,0,1.6,0,2.4c0,0.2,0.1,0.3,0.1,0.4
			c0,0.2,0.2,0.4,0.2,0.6c0,1.2,0,2.3,0,3.5c0,0.2,0,0.5,0.3,0.5c0,0.2-0.1,0.5,0,0.6c0.5,0.7,0.2,1.4,0.3,2.1c0,0.2,0,0.4,0,0.5
			c0,0.2,0.1,0.3,0.1,0.5c0,0.3,0.1,0.5,0.1,0.8c0,0.8,0,1.6,0,2.3c0,0.2,0,0.4,0.3,0.4c-0.1,0.5,0.1,0.7,0.5,0.9
			c0.1,0.5,0.2,1,0.3,1.5c0.1,0.4,0.3,0.8,0.5,1.2c0.2,0.6,0,1-0.7,0.9c-0.2,0-0.3-0.1-0.5-0.2c-0.2-0.1-0.3-0.2-0.4-0.3
			c-0.6-0.5-1.2-1-1.7-1.6c-0.3-0.3-0.5-0.8-0.7-1.2c-0.3-0.5-0.7-1-1-1.6c-0.2-0.3-0.3-0.6-0.3-0.9c0-1.4,0-2.7,0-4.1
			c0-0.1,0-0.3,0.1-0.4c0.4-0.6,0.3-1.3,0.1-1.9c-0.1-0.4-0.2-0.7-0.2-1c0-0.3,0-0.6,0-0.9C0.3,43.9,0.1,43.8,0,43.7L0,43.7z
			 M75,49.3c-0.2,0.1-0.4,0.2-0.5,0.4c-0.5,0.5-1.1,0.6-1.8,0.2c-0.4-0.2-0.8-0.2-1.2-0.4c-0.1,0-0.3-0.1-0.4-0.1
			c-0.6,0-1.2-0.1-1.9-0.1c-0.1,0-0.2,0.2-0.3,0.3c-0.2,0.4-0.5,0.8-0.7,1.2c-0.3,0.5-0.5,1-0.4,1.6c0,0.4,0.2,0.6,0.6,0.7
			c0.2,0,0.4,0.2,0.6,0.2c0.4,0,0.7,0.7,1.2,0.2c0.2,0.1,0.3,0.2,0.5,0.2c0.9,0,1.5,0.5,2.1,1.2c0.2,0.2,0.3,0.6,0.4,0.9
			c0,0.3-0.1,0.6-0.3,0.8c-0.3,0.4-0.6,0.7-1,1c-0.1,0-0.2,0-0.3,0c-0.4-0.3-0.8-0.6-1.3-1c-0.1-0.1-0.2-0.3-0.4-0.3
			c-0.7-0.2-1.4-0.4-2.1-0.6c-0.4-0.1-0.8-0.3-1.2-0.5c-0.3-0.2-0.9-0.2-1.2,0.1c-0.3,0.3-0.5,0.7-0.8,1c-0.1,0.2-0.2,0.4-0.3,0.6
			c0,0.1-0.1,0.2-0.1,0.3c-0.3,0.4-0.2,0.8,0.2,1c0.3,0.3,0.7,0.5,1.1,0.8c0.7,0.6,1.2,1.3,2,1.8c0.3,0.2,0.4,0.6,0.6,0.8
			c0.5,0.4,0.4,0.8,0.4,1.3c0,0.4-0.2,0.6-0.5,0.7c-0.1,0.1-0.2,0.1-0.4,0.2c-0.4,0.1-0.8,0.3-1.2,0.4c-0.4,0.1-0.8-0.1-1.1-0.4
			c-0.1-0.1-0.2-0.1-0.3-0.1c-0.1,0-0.2-0.1-0.2-0.2c-0.4-0.8-0.8-1.6-1.5-2.2c-0.1-0.1-0.2-0.1-0.2-0.2c-0.1-0.5-0.5-0.5-0.8-0.8
			c-0.5-0.4-0.7,0-1,0.3c0,0,0,0-0.1,0.1c-0.6,0.5-1.3,0.9-1.9,1.4c-0.7,0.5-1.4,1-2.3,0.9c-0.1,0-0.3,0-0.4,0.1
			c-0.5,0.2-1,0.4-1.5,0.5c-0.9,0.1-1.7,0.3-2.5,0.6c-0.4,0.1-0.7,0.4-0.6,0.8c0.1,0.4-0.4,0.7-0.1,1.1c0,0-0.1,0.1-0.1,0.1
			c0,0.7-0.1,1.4-0.1,2.1c0,0.3,0.2,0.6,0.2,0.9c0,0.3,0.1,0.7,0.4,0.8c0.3,0.1,0.7,0,1-0.1c0.2,0,0.3-0.1,0.5-0.1
			c0.4-0.1,0.9-0.2,1.2-0.5c0.6-0.5,1.3-0.7,2-0.9c0.8-0.2,1.6,0,2.4-0.3c0.3-0.1,0.8-0.1,1.1-0.2c0.6-0.2,1.1-0.4,1.6-0.8
			c0.2-0.2,0.5-0.3,0.8-0.3c0.4-0.1,0.8-0.2,1.2-0.3c0.3-0.1,0.6-0.2,0.9-0.3c0.6-0.2,1.1-0.5,1.7-0.7c0.5-0.2,1.1-0.4,1.7-0.5
			c0.8-0.2,1.1-0.8,1.4-1.3c0.4-0.6,0.6-1.4,0.9-2.1c0.2-0.4,0.3-0.8,0.5-1.2c0.2-0.5,0.5-1,0.6-1.5c0.1-0.4,0.2-0.7,0.5-0.9
			c0,0,0.1-0.1,0.1-0.2c0.2-0.7,0.6-1.3,0.6-2.1c0-0.1,0.1-0.1,0.1-0.2c0.2-0.5,0.3-1,0.5-1.5c0.1-0.6,0.2-1.3,0.3-2
			c0-0.1,0.1-0.1,0.1-0.2C74.6,50.7,75,50.1,75,49.3c0.3-0.1,0.3-0.3,0.3-0.5c0-0.5-0.1-1,0.1-1.3c0.2-0.4,0.2-0.7,0.2-1
			c0-0.5,0-1,0-1.4c0-0.2,0.1-0.3,0.1-0.4c0.1-0.2,0.2-0.4,0.2-0.6c0-1.4,0-2.9,0-4.3c0-0.1,0-0.3,0-0.4c-0.4-0.4-0.2-0.8-0.2-1.2
			c0-0.2,0-0.4,0-0.5c-0.3-0.3-0.2-0.8-0.2-1.1c0-0.6,0-1.3,0-2c0-0.3,0.2-0.5,0.2-0.8c0-0.2,0-0.5,0.1-0.6c-0.7,0.2-1.4,0.5-2,0.7
			c-0.9,0.2-1.9-0.2-2.8,0.3c-0.2,0.1-0.5,0.2-0.7,0.3c-0.2,0.2-0.5,0.4-0.6,0.6c-0.2,0.2-0.3,0.5-0.3,0.7c0,0.7,0,1.3,0,2
			c0,0.1,0,0.3-0.1,0.4c-0.2,0.4-0.5,0.9-0.7,1.3c-0.2,0.3,0,0.8,0.2,0.7c0.4-0.2,0.7-0.3,1.1,0c0,0,0.1,0,0.1,0
			c0.3-0.2,0.6-0.3,0.8-0.5c0.4-0.3,0.8-0.6,1.2-0.9c0.1,0,0.2-0.1,0.3,0c0.5,0.1,0.9-0.2,1.3-0.5c0.4-0.2,1.4-0.2,1.6,0.2
			c0.2,0.4,0.3,0.8,0.4,1.2c0.1,0.4,0,0.9,0,1.3c0,0.5-0.3,0.7-0.7,0.7c-0.5,0.1-1,0.1-1.4,0.3c-0.6,0.4-1.3,0.3-1.9,0.1
			c-0.4-0.1-0.9-0.2-1.3-0.2c-0.6,0-0.8,0.2-0.8,0.8c0,1.1,0,2.1,0,3.2c0,0.7,0.4,1.1,1.1,1.3c0.1,0,0.2,0.1,0.3,0.2
			c0.3,0,0.5,0,0.8,0c0.1,0,0.2-0.1,0.4-0.2c0.3-0.1,0.7-0.2,1-0.4c0.7-0.4,1.3-0.2,1.8,0.2c0.3,0.2,0.3,0.7,0.5,1.1
			C75.1,48.7,75,49,75,49.3L75,49.3z M65.8,33c-0.1-0.2-0.1-0.4-0.2-0.6c0-0.5-0.1-1,0.1-1.4c0.2-0.6-0.1-1.7-0.7-2
			c-0.3-0.1-0.6-0.3-0.9-0.5c-0.6-0.4-0.9-1-0.8-1.8c0.1-0.5-0.5-1-1-1.1c-0.6-0.1-0.9-0.4-1-1c-0.1-0.9-0.2-1.8-0.3-2.7
			c0-0.1,0-0.2-0.1-0.2c-0.7-0.8-1.4-1.5-2-2.3c-0.2-0.3-0.5-0.5-0.8-0.8c-0.1-0.1-0.2-0.4-0.3-0.5c-0.7-0.4-1.4-0.9-2-1.5
			c-0.1-0.1-0.2-0.2-0.4-0.2c-0.4-0.2-0.8-0.4-1.1-0.7c-0.3-0.3-0.7-0.5-1.1-0.4c-0.7,0.1-1.2-0.2-1.9-0.3c-0.4-0.1-0.8-0.4-1.2-0.6
			c-0.3-0.1-0.6-0.2-0.9-0.4c-0.5-0.2-0.9-0.5-1.4-0.4c-0.4,0.1-0.9,0-1.3,0c-0.3,0-0.5-0.1-0.9-0.1c-0.2,0.2-0.5,0.2-0.8,0
			c-0.5-0.3-0.9-0.5-1.5-0.5c-0.2,0-0.4-0.1-0.6-0.1c-0.3,0-0.5,0-0.8,0c-0.1,0-0.3,0.1-0.4,0.1c-0.4-0.4-0.8-0.2-1.3-0.2
			c-0.6,0-1.2-0.2-1.8-0.5c-0.4-0.2-0.8-0.4-1.3-0.4c-0.4,0.1-0.8,0-1.1,0c-0.2,0-0.3,0-0.5,0.1c-0.8,0.5-1.5,0.9-2.2,1.4
			c-0.7,0.5-1.4,1.1-2,1.7c-0.3,0.2-0.5,0.5-0.8,0.8c-0.1,0.1-0.3,0.1-0.4,0.2c-0.2,0.1-0.4,0.2-0.6,0.3c-0.1,0.1-0.2,0.2-0.4,0.3
			c-0.5,0.3-1,0.6-1.5,1c-0.2,0.2-0.5,0.3-0.7,0.5c-0.4,0.3-0.7,0.5-1.1,0.8c-0.4,0.3-0.8,0.6-1.2,0.9c-0.2,0.1-0.3,0.4-0.4,0.6
			c-0.2,0.4-0.3,0.8-0.5,1.1c-0.6,0.6-1.2,1.3-1.9,1.8c-0.5,0.3-0.8,1.1-1.2,1.6c0.4,0.5,0.7,0.9,1.3,0.8c0.1,0,0.2,0.1,0.3,0.1
			c0.3,0.2,0.7,0.5,1,0.7c0.5,0.3,1.1,0.7,1.6,1.1c0.4,0.4,0.6,0.8,1,1.2c0.6,0.6,1.1,1.1,1.7,1.7c0.3,0.3,0.6,0.3,1,0
			c0.1-0.1,0.3-0.3,0.4-0.3c0.4-0.2,0.5-0.3,0.1-0.6c-0.4-0.3-0.8-0.5-1.1-0.9c-0.3-0.3-0.5-0.7-0.8-1c-0.8-0.9-1.5-1.8-2.3-2.6
			c-0.5-0.6-0.6-1.3-0.9-2c-0.1-0.3-0.1-0.6-0.2-1c0.1-0.1,0.2-0.2,0.4-0.4c0.1-0.1,0.3-0.2,0.4-0.1c0.4,0.2,0.9,0.4,1.3,0.7
			c0.7,0.6,1.3,1.3,2,1.8c0.7,0.4,1.2,1.1,1.7,1.7c0.1,0.1,0.1,0.1,0.2,0.2c0.2,0.6,0.6,1.2,1.1,1.6c0.2,0.1,0.5,0.3,0.7,0.2
			c0.2-0.1,0.4-0.4,0.4-0.7c0.1-0.9-0.4-1.5-0.8-2.2c-0.1-0.2-0.3-0.5-0.3-0.7c0.1-0.7-0.2-1.2-0.4-1.8c-0.1-0.6-0.3-1.1-0.5-1.7
			c-0.1-0.2-0.1-0.3-0.2-0.4c-0.4-0.4-0.5-1-0.6-1.5c-0.1-0.5-0.1-1,0.2-1.5c0.1-0.2,1.1-0.6,1.3-0.5c0.1,0,0.1,0.1,0.1,0.1
			c0.4,0.5,1,0.9,1.2,1.6c0.3,0.8,0,1.5,0.4,2.3c0.3,0.5,0.2,1.3,0.3,1.9c0,0,0,0.1,0,0.1c0.3,0.8,0.7,1.5,1.1,2.3
			c0.2,0.4,0.5,0.5,0.8,0.3c0.4-0.2,0.5-1,0.2-1.4c-0.2-0.2-0.4-0.5-0.4-0.8c0-0.4-0.1-0.7-0.3-1c-0.3-0.4-0.2-0.7,0-1.1
			c-0.3-0.4-0.3-0.7,0-1.1c0.1-0.1,0-0.3,0-0.4c0-0.2-0.2-0.5-0.2-0.7c0-0.9-0.2-1.8-0.9-2.4c-0.4-0.3-0.3-1.4,0.1-1.6
			c0.2-0.2,0.5-0.2,0.8-0.4c0.2-0.1,0.4-0.2,0.6-0.3c0.6-0.2,1,0.3,1.3,0.7C36,14.8,36,14.9,35.9,15c0.9,0.3,0.8,1.2,1,1.9
			c-0.2,0.5-0.3,1,0,1.5c0.2,0.3,0.3,0.7,0.4,1c0.2,1-0.1,2.1,0.2,3.2c0.3,0.8,1,1.4,1.8,1.1c0.1,0,0.2-0.1,0.2-0.1
			c0.1-0.4,0.3-0.8,0.3-1.2c0-1,0-2.1,0-3.1c0-0.2,0-0.4,0.1-0.5c0.3-0.5,0.3-1.1,0.1-1.6c-0.2-0.4-0.2-0.8-0.2-1.2
			c0-0.3-0.1-0.6-0.1-0.8c0,0-0.1-0.1-0.2-0.1c0.2-0.2,0.4-0.3,0.6-0.5c0.5-0.6,1.1-0.4,1.7-0.4c0.4,0,0.5,0.4,0.6,0.7
			c0.1,0.2,0.2,0.4,0.3,0.6c0.4,0.5,0.3,1.1,0.1,1.6c-0.1,0.4-0.2,0.7-0.2,1.1c-0.1,0.6-0.2,1.1-0.3,1.7c0,0,0,0,0,0
			c-0.1,0.3-0.2,0.6-0.2,0.9c0,0.6,0,1.1,0,1.7c0,0.6,0.2,0.9,0.8,0.9c0.6,0,0.8-0.2,0.8-0.8c0-0.4,0-0.7,0.2-1
			c0.2-0.3,0.2-0.7,0.3-1c0.1-0.3,0.2-0.7,0.4-1c0.1-0.4,0.3-0.8,0.5-1.2c0.1-0.3,0.2-0.7,0.4-1c0.5-0.7,0.9-1.4,1.5-2
			c0.4-0.4,0.9-0.8,1.3-1.2c0.4,0.4,0.8,0.8,1,1.2c0.2,0.7-0.2,1.3-0.4,2c-0.2,0.5-0.5,0.9-0.7,1.4c-0.2,0.4-0.3,0.8-0.5,1.2
			c-0.2,0.4-0.4,0.8-0.6,1.2c-0.3,0.6-0.5,1.3-0.7,1.9c0,0.1,0.1,0.3,0.2,0.4c0.2,0.2,0.4,0.4,0.6,0.5c0.6,0.1,1.2,0.1,1.4-0.7
			c0-0.1,0.1-0.1,0.1-0.1c0.2-0.3,0.4-0.6,0.6-1c0.1-0.2,0.3-0.4,0.3-0.7c0-0.7,0.5-1.1,1.1-1.4c0.7-0.3,1.5-0.6,2-1.2
			c0.5-0.6,1.1-1.1,1.6-1.6c0.2-0.2,0.5-0.2,0.8-0.1c0.5,0.2,0.8,0.8,0.7,1.3c-0.1,0.4-0.3,0.8-0.5,1.2c-0.2,0.3-0.4,0.7-0.6,1
			c-0.3,0.4-0.5,0.9-0.8,1.3c-0.4,0.4-0.8,0.9-1.4,1.2c-0.4,0.2-0.6,0.8-1,1.2c-0.3,0.4-0.7,0.7-1.1,1.1c-0.4,0.4-0.3,0.7,0.1,0.9
			c0.3,0.2,0.6,0.4,0.9,0.6c0.3,0.3,0.6,0.3,0.9,0.1c0.4-0.3,0.7-0.6,1.1-0.8c0.4-0.2,0.8-0.6,1.3-0.6c0.5-0.1,0.8-0.4,1.2-0.7
			c0.1-0.1,0.1-0.1,0.2-0.2c0.6-0.5,1.3-0.9,1.9-1.4c0.3-0.2,0.6-0.4,0.9-0.6c0.2-0.1,0.6-0.1,0.8,0c0.6,0.4,1,0.9,1.2,1.6
			c0,0.1,0,0.4-0.1,0.5c-0.6,0.7-1.3,1.3-2.3,1.2c-0.2,0-0.4,0-0.5,0c-0.5,0.2-0.9,0.4-1.3,0.5c-0.3,0.1-0.7,0.2-1,0.3
			c-0.4,0.1-0.8,0.3-1.2,0.5c-0.5,0.2-1.1,0.4-1.6,0.6c-0.1,0-0.1,0.2-0.1,0.3c0,0.1,0.1,0.2,0.2,0.2c0.1,0.1,0.3,0.2,0.4,0.2
			c0.4,0.3,0.7,0.7,1.2,0.8c0.4,0.1,1,0.2,1.2,0c0.5-0.5,1.1-0.4,1.6-0.7c0.2-0.1,0.5-0.2,0.8-0.3c0.8-0.1,1.7-0.2,2.5-0.3
			c0.1,0,0.1,0,0.2-0.1c0.8-0.5,1.7-0.3,2.2,0.5c-0.1,0.2-0.2,0.5-0.4,0.7c-0.3,0.3-0.6,0.5-1,0.7c-0.7,0.3-1.4,0.7-2.2,0.6
			c-0.2,0-0.5,0-0.7,0.1c-0.2,0-0.4,0.2-0.6,0.2c-0.8,0-1.6,0-2.4,0c-0.2,0-0.5,0.2-0.6,0.4c-0.1,0.2,0,0.5,0.1,0.7
			c0.1,0.4,0.3,0.7,0.4,1.1c0.1,0.3,0.6,0.9,0.9,0.9c0.6-0.1,1.2-0.2,1.8-0.3c0,0,0.1-0.1,0.1-0.1c0.7-0.3,1.4-0.7,2.2-0.7
			c0.2,0,0.4-0.2,0.6-0.2c0.6,0,1.1-0.2,1.6-0.6c0,0,0.1,0,0.1,0c0.6,0,1.1,0,1.7,0c0.1,0,0.3,0.2,0.4,0.3c0.2,0.2,0.4,0.4,0.6,0.5
			c0,0.2,0,0.3-0.1,0.5c-0.2,0.3-0.3,0.7-0.5,1c-0.2,0.2-0.4,0.4-0.7,0.5c-0.3,0.1-0.6,0-0.8,0.1c-0.7,0.3-1.3,0.9-2.2,0.8
			c0,0,0,0,0,0c-0.3,0.4-0.8,0.2-1.2,0.2c-0.7,0-1.4,0-2,0c-0.8,0-1.4,0.4-1.9,1c0.4,0.5,1,0.6,1.6,0.7c0.9,0.1,1.8,0,2.6,0
			c0.1,0,0.3,0,0.4-0.1c0.3-0.1,0.5-0.2,0.8-0.2c0.5,0,1,0.1,1.4-0.1c0.6-0.3,1.1-0.3,1.7,0c0.8,0.5,1.1,1,0.7,1.8
			c-0.4,0.9-1.1,1.3-2,1.3c-0.4,0-0.8,0-1.2,0c-0.2,0-0.3-0.1-0.4-0.1c-0.5,0-1.1-0.2-1.6-0.1c-0.5,0.1-1,0.4-1.5,0.5
			c-0.6,0.1-1.1,0.4-1.5,0.8c-0.2,0.2-0.2,0.4,0,0.6c0.5,0.5,1.1,0.9,1.8,0.8c0.2,0,0.4,0,0.5,0.1c0.5,0.3,1,0.4,1.6,0.5
			c0.7,0.2,1.3,0.2,1.9,0.2c0.1,0,0.1,0.1,0.2,0.1c0.2,0.1,0.4,0.1,0.6,0.2c0.4,0.2,0.8,0.3,1.2,0.5c0.2,0.1,0.4,0.3,0.5,0.5
			c0.1,0.8,0.1,1.5-0.4,2.1c-0.2,0.2-0.4,0.5-0.6,0.5c-1.3,0.2-2.5-0.2-3.7-0.3c0,0-0.1,0-0.1-0.1c-0.5-0.3-0.9-0.5-1.5-0.5
			c-0.1,0-0.3,0-0.4-0.1c-0.3-0.2-0.6-0.4-0.9-0.6c-0.3-0.2-0.6-0.2-0.9,0.1c-0.4,0.4-0.7,0.8-1,1.3c-0.1,0.2,0,0.6,0.1,0.8
			c0.5,0.6,1.1,1.2,1.8,1.8c0.3,0.3,0.8,0.5,1.2,0.7c0.5,0.3,1.1,0.7,1.6,1c0.1,0.1,0.2,0.2,0.2,0.3c0.1,0.3,0.2,0.6,0.4,0.8
			c0.4,0.7,0.3,1.5-0.4,1.9c-0.3,0.2-0.7,0.3-1.1,0.4c-0.5,0.1-0.9-0.2-1.3-0.4c-0.3-0.2-0.6-0.4-0.9-0.7c-0.2-0.2-0.2-0.4-0.4-0.6
			c-0.8-0.7-1.4-1.6-2.4-2.2c-0.4-0.2-0.6-0.6-1-0.9c-0.5-0.5-0.8-0.5-1.3,0.1c0.2,0.3,0.4,0.6,0.6,0.9c0.3,0.3,0.7,0.5,1,0.8
			c0.3,0.2,0.6,0.5,0.8,0.8c0.3,0.4,0.6,0.9,0.8,1.3c0.1,0.2,0.2,0.4,0.3,0.6c0.2,0.4,0.2,0.8,0.4,1.2c0.3,0.5,0.5,1,0.4,1.6
			c0,0.4-0.6,0.9-1,0.9c-0.4,0-0.8,0-1.2,0c-0.1,0-0.3,0-0.4-0.1c-0.3-0.6-0.6-1.1-0.8-1.7c-0.2-0.7-0.2-1.4-0.8-1.9
			c0,0,0-0.1-0.1-0.2c-0.2-0.5-0.3-1.2-0.7-1.6c-0.7-0.8-1.3-1.6-2.4-2c-0.1,0.3-0.2,0.6-0.2,0.9c0,0.3,0,0.6,0,0.8
			c-0.1,0.8,0.2,1.4,0.7,2c0.1,0.1,0.2,0.2,0.1,0.3c-0.1,0.5,0.2,0.9,0.5,1.2c0.1,0.1,0.2,0.3,0.3,0.5c0.2,0.3,0.3,0.6,0.5,0.8
			c0.3,0.4,0.6,0.8,0.9,1.2c0,0.1,0.1,0.2,0,0.2c-0.2,0.3-0.3,0.8-0.6,1c-0.7,0.4-1.4,0.9-2.3,0.6c-0.2-0.1-0.6-0.2-0.6-0.4
			c-0.2-0.6-0.2-1.2-0.3-1.8c0-0.2,0-0.4-0.1-0.5c0-0.2-0.1-0.4-0.2-0.6c-0.1-0.2-0.1-0.4-0.2-0.6c-0.1-0.4-0.2-0.8-0.4-1.2
			c0-0.1,0-0.2,0-0.3c-0.2-0.5-0.4-1-0.5-1.5c-0.1-0.4-0.2-0.8-0.3-1.2c-0.1-0.5-0.5-0.6-0.9-0.3c0,0-0.1,0.1-0.2,0.1
			c-0.4,0.1-0.6,0.4-0.6,0.8c0,1.3,0,2.6,0,3.9c0,0.2,0,0.3-0.1,0.5c-0.1,0.2-0.2,0.5-0.2,0.7c0,0.4,0,0.8,0,1.1
			c0,0.2-0.1,0.3-0.1,0.4c-0.1,0.4-0.3,0.8-0.5,1.2c0,0.1-0.1,0.2-0.1,0.3c-0.4,0.6-1,0.6-1.6,0.5c-0.5,0-1-0.5-1-1
			c0-0.8,0-1.6,0-2.4c0-0.2,0.1-0.3,0.1-0.5c0-0.2,0.1-0.3,0.2-0.5c0.1-0.9,0.2-1.8,0.3-2.6c0-0.1,0-0.1,0.1-0.2
			c0.4-0.7,0.3-1.7-0.4-2.2c-0.2-0.2-0.5-0.3-0.8-0.4c-0.2-0.1-0.4-0.2-0.7-0.3c-0.8-0.1-1.3,0.5-1.4,1.3c-0.1,1.1,0.2,2.1-0.2,3.2
			c-0.3,0.7,0,1.5-0.3,2.3c-0.2,0.6,0,1.2-0.3,1.9c-0.2,0.4-0.3,0.7-0.6,1c-0.2,0.1-0.6,0.2-0.7,0.1c-0.7-0.5-1.3-1.1-1.2-2.1
			c0-0.4,0-0.9,0-1.3c0-0.1,0.1-0.3,0.1-0.4c0.1-0.5,0.3-1,0.4-1.5c0.1-0.9,0.2-1.9,0.3-2.8c0-0.1,0-0.1,0.1-0.2
			c0.4-0.4,0.2-0.8,0.2-1.2c0-0.1-0.1-0.2-0.2-0.2c-0.5-0.2-0.9,0-0.9,0.5c0,0.1-0.1,0.2-0.1,0.3c-0.2,0.6-0.8,1.2-0.7,1.9
			c0,0.1-0.1,0.2-0.1,0.3c-0.2,0.5-0.4,0.9-0.5,1.5c0,0.8-0.2,1.5-0.3,2.3c0,0.1-0.1,0.1-0.1,0.2c-0.2,0.3-0.5,0.6-0.8,0.9
			c0-0.1-0.1-0.1-0.1-0.2c-0.1,0-0.3,0-0.4,0.1c-0.3,0.1-0.6,0.1-0.9-0.1c-0.4-0.3-0.6-0.7-0.5-1.2c0.1-0.4,0-0.8,0-1.3
			c0-0.1,0-0.2,0.1-0.4c0.4-0.8,0.7-1.6,1.1-2.4c0.1-0.3,0.2-0.7,0.4-1c0.4-0.6,0.9-1.2,1.2-1.8c-0.3-0.6-0.6-0.5-1-0.2
			c-0.5,0.3-1.1,0.3-1.2,1c0,0.1-0.1,0.1-0.2,0.2c-0.2,0.3-0.4,0.7-0.6,1c-0.4,0.7-0.6,1.5-1.3,2c-0.1,0.1-0.3,0.3-0.4,0.5
			c-0.2,0.5-0.7,0.7-1.2,0.9c-0.4,0.1-0.9,0.2-1.2-0.2c-0.1-0.2-0.1-0.4-0.2-0.5c-0.3-0.4-0.3-0.8,0-1.2c0.2-0.2,0.2-0.6,0.4-0.8
			c0.2-0.5,0.4-1,0.7-1.4c0.9-1.1,2-2.2,2.9-3.2c0.2-0.3,0.4-0.6,0.5-1c0-0.1-0.4-0.3-0.6-0.4c0,0-0.1,0-0.1,0
			c-0.1,0.1-0.2,0.2-0.3,0.2c-1,0.3-1.7,1-2.4,1.6c-0.7,0.6-1.3,1.3-2,2c-0.4,0.4-0.9,0.6-1.4,0.9c-0.5,0.3-1,0.5-1.5,0.9
			c-0.4,0.3-0.6,0.4-0.8,0c-0.2-0.3-0.3-0.7-0.4-1c-0.1-0.5,0.2-1,0.5-1.3c0.7-0.7,1.5-1.3,2.2-1.9c0.5-0.4,1-0.9,1.5-1.3
			c0,0,0,0,0.1,0c0.6-0.2,1.1-0.5,1.5-1c0.1-0.1,0.3-0.4,0.2-0.5c-0.1-0.2-0.4-0.4-0.6-0.4c-0.5-0.1-1-0.1-1.3,0.4
			c0,0-0.1,0.1-0.1,0.1c-0.5,0.4-1.1,0.7-1.6,1.1c-0.3,0.2-0.7,0.4-1,0.6c-0.6,0.3-1.4,0.6-1.9,1.1c-0.1,0.2-0.4,0.2-0.6,0.3
			c-0.3,0.1-0.7,0.1-1.1,0.1c-0.1,0-0.3,0-0.5-0.1c-0.2-0.1-0.5-0.2-0.6-0.5c-0.3-0.6,0.3-2,1-2.3c0.2-0.1,0.4-0.2,0.5-0.3
			c0.9-1.1,2.1-1.8,3.3-2.5c0.2-0.1,0.5-0.3,0.8-0.3c0.6,0,1.1,0,1.5-0.5c0,0,0.2,0,0.2-0.1c0.2-0.3,0.4-0.6,0.5-0.9
			c0-0.1-0.4-0.4-0.6-0.5c-0.4-0.1-0.8,0.1-1.1-0.1c-0.4-0.2-0.7-0.2-1.1-0.2c-0.8,0.1-1.6-0.2-2.4-0.5c-0.2,0.2-0.5,0.3-0.7,0
			c-0.1-0.1-0.3-0.1-0.4-0.1c-0.5,0-1,0-1.5,0c-0.5,0-0.8,0.2-0.8,0.8c0,0.4,0.2,0.9,0.3,1.3c0.1,0.6,0.2,1.3,0.3,1.9
			c0,0,0,0.1,0.1,0.1c0.3,0.5,0.3,1,0,1.5c-0.2,0.3-0.3,0.7-0.3,1.1c-0.1,0.9,0.1,1.7,0.8,2.3c0.3,0.3,0.6,0.7,0.8,1.1
			c0,0,0,0.1,0,0.2c0.1,0.2,0.2,0.6,0.4,0.8c1.2,1.2,2.4,2.4,3.6,3.7c0.1,0.1,0.2,0.2,0.4,0.3c0.5,0.2,0.9,0.5,1.3,0.8
			c0.6,0.6,1.2,1.1,1.9,1.6c0,0,0.1,0.1,0.1,0.1c0.7-0.1,1,0.6,1.5,0.8c0.6,0.2,1.2,0.5,1.8,0.7c0.4,0.1,0.8,0.2,1.2,0.4
			c0.7,0.3,1.3,0.6,2.1,0.5c0.5-0.1,0.9,0.2,1.3,0.4c0.8,0.4,1.5,0.9,2.5,0.7c0.3,0,0.5,0,0.8,0.1c0.3,0,0.5,0.2,0.8,0.2
			c0.4,0,0.9,0,1.3,0c0.2,0,0.3,0.1,0.5,0.1c0.1,0,0.3,0.1,0.4,0.1c0.8,0,1.5,0,2.2,0c0.1,0,0.2,0,0.3-0.1c0.3-0.1,0.6-0.2,0.9-0.2
			c0.3,0,0.7,0.1,1-0.2c0.1-0.1,0.3,0.1,0.5,0.1c0.1,0,0.3,0.1,0.5,0.1c0.3,0,0.5-0.1,0.8-0.2c0.2,0,0.4,0,0.6-0.1
			c0.6-0.2,1.2-0.5,1.8-0.5c0.3,0,0.7,0,1,0c0.2,0,0.4,0,0.5-0.1c0.6-0.5,1.3-0.5,2-0.5c0.5,0,1.1-0.1,1.4-0.4
			c0.6-0.6,1.4-0.7,2.1-1c0.2-0.1,0.4-0.3,0.6-0.2c1.2,0.1,1.9-0.7,2.7-1.3c0.4-0.3,0.7-0.7,1-1c0.2-0.2,0.5-0.5,0.7-0.7
			c0.4-0.6,0.8-1.1,1.2-1.7c0.3-0.4,0.6-0.9,0.8-1.3c0.2-0.3,0.2-0.7,0.4-1c0.3-0.7,0.7-1.3,1-2c0.2-0.3,0.2-0.7,0.4-1
			c0.3-0.5,0.5-1,0.5-1.6c0-0.1,0.1-0.3,0.1-0.5c0-0.3,0.1-0.8,0-1c-0.2-0.5-0.2-0.9,0-1.2v-0.7c0-0.2-0.1-0.4-0.1-0.7
			c0-1,0-1.9,0-2.8c0-0.1,0-0.3,0.1-0.4c0-0.2,0.1-0.3,0.1-0.5c0-0.3,0.2-0.5,0.3-0.8c0.2-0.5,0.5-0.9,0.6-1.4
			c0.2-0.8-0.1-1.6-0.3-2.4c0,0-0.1-0.1-0.1-0.1c-0.5-0.5-0.7-1-0.7-1.7C66.1,33.3,66.2,33,65.8,33L65.8,33z M41.1,43.1
			c0.1,0,0.2,0,0.3,0c1.3,0,2.5,0.1,3.4-1c0-0.1,0.2,0,0.3-0.1c0.1,0,0.2-0.1,0.2-0.2c0.2-0.2,0.3-0.5,0.5-0.7
			c0.1-0.1,0.3-0.3,0.3-0.4c0.1-0.6,0.1-1.2,0.3-1.9c0.2-1-0.1-1.9-0.5-2.8c-0.1-0.2-0.3-0.4-0.3-0.6c0-0.7-0.6-1.2-1-1.7
			c-0.3-0.4-0.7-0.5-1.2-0.7c-0.7-0.2-1.3-0.5-2-0.5c-0.3,0-0.6,0-0.9,0c-0.4,0-0.7-0.1-1,0.2C39.4,32.9,39.2,33,39,33
			c-0.7,0-1.1,0.5-1.5,0.9c-0.7,0.5-1.3,1.2-1.9,1.9c-0.1,0.1-0.2,0.4-0.2,0.6c0,0.9,0.1,1.8,0,2.7c-0.1,0.8,0.4,1.4,0.8,1.9
			c0.6,0.7,1.2,1.3,2.2,1.7c0.5,0.2,1,0.5,1.7,0.5C40.3,43.1,40.7,43.1,41.1,43.1L41.1,43.1z M23.4,59.7c-0.2-0.3-0.4-0.5-0.7-0.8
			c-0.6-0.5-1.2-0.8-1.8-1.2c-0.1-0.1-0.3,0-0.4,0c-0.6,0.2-1.1,0.3-1.7,0.5c-0.5,0.1-0.9,0.2-1.4,0.3c-0.3,0.1-0.6,0.2-0.9,0.3
			c-0.4,0.2-0.8,0.3-1.2,0.5c-0.5,0.2-1,0.4-1.5,0.5c-0.4,0.1-0.7,0.3-1.1,0.2c-0.2-0.1-0.6,0.2-0.7,0.4c-0.3,0.5,0,1,0.6,1.2
			c0.1,0,0.2,0.1,0.3,0.2c0.5,0.5,1,1,1.4,1.6c0.6,0.8,1.5,1.2,2.6,1.2c1,0,1.6-0.5,2-1.3c0.6-1,1.3-1.9,2.7-1.8
			c0.1,0,0.3,0,0.4-0.1c0.4-0.4,0.9-0.5,1.1-1.1C23.2,60.2,23.3,60,23.4,59.7L23.4,59.7z M17.7,31.2c0.5,0.6,1,0.9,1.8,1
			c0.4,0,0.8,0.2,1.1,0.4c0.4,0.1,0.8,0.3,1.2,0.5c0.4,0.2,0.8,0.3,1.2,0.6c0.4,0.3,0.8,0.6,1.4,0.5c0.4,0,0.7,0.1,0.9,0.4
			c0.3,0.3,0.6,0.3,0.9,0c0.5-0.5,0.6-1.3,0-1.8c-1.1-1-2.1-2.3-3.4-3.2c-0.8-0.5-1.3-1.4-2.2-1.8c-0.3-0.2-0.6-0.4-0.9-0.5
			c-0.4-0.2-0.6,0-0.6,0.4c-0.1,0.5-0.1,1-0.3,1.4C18.6,29.7,18.1,30.4,17.7,31.2L17.7,31.2z M53.9,44.8c-0.1-0.1-0.3-0.2-0.5-0.3
			c-0.3-0.3-0.8-0.2-1.1-0.3c-0.6-0.2-1.1-0.5-1.7-0.6c-0.6-0.1-1-0.6-1.6-0.9c-0.2-0.1-0.6-0.1-0.7,0c-0.3,0.3-0.5,0.6-0.8,1
			c-0.1,0.1-0.1,0.3,0,0.5c0.1,0.4,0.3,0.8,0.5,1.2c0.2,0.8,0.3,1.5,0.6,2.2c0.2,0.7,0.7,1.2,1.3,1.6c0.4-0.3,0.8-0.5,1.2-0.8
			c0.5-0.4,1.1-0.8,1.6-1.1c0,0,0,0,0,0c0.1-0.6,0.7-0.9,1-1.3c0.1-0.1,0.1-0.2,0.2-0.4C53.8,45.3,53.8,45.1,53.9,44.8L53.9,44.8z
			 M26,38.5c-0.1-0.1-0.2-0.2-0.2-0.3c-0.3-0.9-1-1.2-1.9-1.2c-0.3,0-0.6,0-0.9-0.1c-0.4-0.1-0.8-0.5-1.2-0.4
			c-0.8,0.1-1.2-0.6-1.8-0.8c-0.2-0.1-0.5-0.2-0.7-0.4c-0.5-0.5-1.3-0.5-1.9-0.8c-0.1,0-0.3,0-0.4,0.1c-0.5,0.3-0.9,1.5-0.6,2
			c0.2,0.4,0.2,0.7,0.2,1.1c0,0.3-0.1,0.6,0,0.9c0.1,0.2,0.2,0.6,0.4,0.6c0.5,0.1,1,0.2,1.4-0.2c0.1-0.1,0.4-0.2,0.6-0.2
			c1.3,0,2.6,0,3.8,0c0.1,0,0.3,0,0.4,0.1c0.2,0.1,0.4,0.2,0.7,0.2c0.3,0,0.7,0,1,0C25.5,38.9,25.8,38.8,26,38.5L26,38.5z
			 M18.5,22.1c0.6,0.1,0.9-0.5,1.2-0.8c0.3-0.3,0.3-0.6,0-0.9c-0.3-0.3-0.5-0.8-1-1c-0.1,0-0.1-0.2-0.2-0.3
			c-0.2-0.3-0.4-0.7-0.6-0.8c-0.7-0.3-1.1-0.9-1.6-1.4c-0.1-0.1-0.2-0.3-0.2-0.4c-0.2-0.5-0.8-0.9-1.2-0.8c-0.7,0.2-1,0.7-1.3,1.4
			c-0.2,0.5-0.3,1-1,1.2c-0.2,0-0.4,0.4-0.4,0.5c0,0.2,0.2,0.4,0.4,0.5c0.3,0.2,0.7,0.2,1.1,0.3c0.6,0.2,1.2,0.5,1.8,0.8
			c0.7,0.3,1.3,0.6,2,0.9c0.2,0.1,0.5,0.2,0.6,0.4C18,22.1,18.2,22.1,18.5,22.1L18.5,22.1z M44.1,50.4c0.8,0,1.7,0,2.6,0
			c0.1,0,0.3-0.1,0.3-0.2c0-0.1,0-0.3-0.1-0.4c-0.6-0.5-0.9-1.2-1.4-1.9c-0.5-0.6-0.6-1.3-1-2c-0.3-0.5-0.8-0.9-1.3-0.9
			c-0.5-0.1-1,0.1-1.4,0.4c-0.4,0.2-0.8,0.6-0.7,1.2c0,0.2,0,0.4,0,0.6c-0.1,0.3-0.2,0.6-0.2,1c0,0.5,0,0.9,0,1.4
			c0,0.6,0.2,0.9,0.8,0.9C42.5,50.4,43.3,50.4,44.1,50.4L44.1,50.4z M39.3,46c-0.1-0.4-0.1-0.8-0.2-0.9c-0.3-0.2-0.7-0.2-1.1-0.3
			c-0.1,0-0.2,0-0.3-0.1c-1-0.5-1.7-0.2-2.1,0.7c-0.2,0.3-0.4,0.6-0.6,1c-0.2,0.5-0.3,0.9-0.5,1.4c0,0.1,0.1,0.2,0.1,0.3
			c0.4,0.6,1,0.7,1.6,0.8c0.6,0.1,1.2,0.3,1.6,0.7c0.3,0.2,0.6,0.2,0.8,0c0.3-0.2,0.4-0.4,0.1-0.8c-0.1-0.1,0-0.3,0-0.4
			c0-0.2,0.2-0.5,0.2-0.7c0-0.3,0-0.6,0-0.9C39,46.6,39.2,46.2,39.3,46L39.3,46z M49.4,35.9c0.2,0,0.4-0.1,0.7-0.2
			c0.4-0.1,0.8-0.3,1.3-0.4c0.5-0.1,1-0.6,1-1.1c0-0.5-0.1-0.9,0.2-1.3c0,0,0-0.1,0-0.2c-0.2-0.4-0.3-0.8-0.5-1.1s-0.5-0.6-0.6-1
			c-0.2-0.4-0.3-0.5-0.7-0.1c-0.5,0.4-0.9,0.8-1.4,1.1c-0.4,0.2-0.8,0.4-1.2,0.7c-0.2,0.1-0.6,0.3-0.4,0.6c0.4,0.7,0.3,1.4,0.5,2.1
			C48.6,35.5,48.8,35.8,49.4,35.9L49.4,35.9z M45.7,26c-0.1,0.1-0.3,0.1-0.4,0.2c-0.2,0.4-0.4,0.8-0.5,1.2c-0.1,0.2-0.1,0.4-0.2,0.6
			c-0.1,0.3-0.3,0.6-0.4,1c-0.2,0.8,0.4,1.3,0.9,1.7c0.3,0.2,0.8,0.4,1.1,0.3c0.5-0.1,0.9-0.4,1.3-0.7c0.6-0.5,1.1-1,1.5-1.5
			c0.1-0.1,0.1-0.4,0-0.5c-0.7-0.8-1.5-1.5-2.5-1.9C46.3,26.2,46,26.1,45.7,26L45.7,26z M19.6,65.8c0,0.1,0.1,0.1,0.1,0.2
			c0.1,0,0.3,0.1,0.4,0c0.7-0.1,1.5,0,2.1,0.3c0.5,0.2,1,0.2,1.5,0.2c0.1,0,0.3-0.2,0.4-0.3c0.2-0.5,0.4-1.2,0.7-1.6
			c0.5-0.6,1-1.3,1.4-2c0.1-0.1,0.1-0.4,0-0.5c-0.1-0.1-0.4-0.2-0.6-0.3c-0.9-0.2-1.6,0.1-2.3,0.9c-0.6,0.7-1.4,1.2-2,1.8
			c-0.1,0-0.1,0.1-0.2,0.1C20.6,65,20.1,65.4,19.6,65.8L19.6,65.8z M28.6,44.2c0.2,0.4,0.4,0.9,0.6,1c0.7,0.2,0.9,1.1,1.7,1
			c0.5,0.5,0.9,0,1.3-0.2c0.7-0.4,1-1.2,1.6-1.6c0,0,0-0.1,0-0.1c0.1-0.2,0.2-0.3,0.3-0.5c0.3-0.2,0.4-0.6,0.2-0.8
			c-0.2-0.3-0.5-0.5-0.8-0.7c-0.2-0.1-0.5-0.1-0.7-0.2c-0.1,0.1-0.2,0.2-0.4,0.2c-0.8-0.1-1.4,0.5-2.1,0.7
			C29.7,43.1,29.2,43.8,28.6,44.2L28.6,44.2z M41.2,25.6c0,0,0,0.1,0,0.1c-1-0.1-2,0.3-2.5,0.9c-0.2,0.3-0.5,0.5-0.1,0.9
			c0.1,0.1,0.2,0.4,0.3,0.6c0.1,0.3,0.3,0.6,0.3,0.9c0.1,0.6,0.5,0.9,1.1,0.6c0.2-0.1,0.5-0.2,0.7-0.2c0.3,0,0.6,0,0.9,0
			c0.1,0,0.3,0,0.3-0.1c0.1-0.4,0.2-0.7,0.3-1.1c0-0.2,0.1-0.3,0.2-0.5c0-0.5,0.1-1,0.1-1.5c0-0.1-0.1-0.1-0.2-0.1
			C42.1,25.9,41.7,25.8,41.2,25.6L41.2,25.6z M33.6,34.4c-0.1-0.1-0.2-0.4-0.4-0.5c-0.3-0.2-0.6-0.4-0.9-0.7
			c-0.3-0.3-0.6-0.6-0.9-0.9c-0.2-0.2-0.4-0.2-0.6,0c-0.2,0.3-0.4,0.6-0.5,1c-0.3,0.5-0.6,1.1-0.9,1.6c-0.1,0.2-0.2,0.6-0.1,0.7
			c0.1,0.2,0.4,0.4,0.6,0.4c0.8-0.1,1.4,0.5,2.1,0.7c0.2,0.1,0.4,0.1,0.5,0c0.3-0.3,0.6-0.7,0.8-1.1C33.4,35.3,33.5,34.9,33.6,34.4
			L33.6,34.4z M54.2,41.1c-0.1-0.3-0.1-0.6-0.1-0.9c0-0.7,0-1.3,0-2c0-0.5-0.4-0.8-0.8-0.6c-0.3,0.1-0.6,0.2-0.9,0.2
			c-0.2,0-0.4,0-0.5,0.1c-0.6,0.1-1.1,0.3-1.7,0.5c-0.3,0.1-0.8,0.1-0.9,0.6c-0.1,0.3,0,0.7,0,1.1c0,0.1,0.1,0.2,0.1,0.3
			c0.4,0.1,0.8,0.3,1.2,0.3c0.5,0,1,0,1.4,0c0.2,0,0.4,0.1,0.6,0.2C53.2,40.9,53.6,41.3,54.2,41.1L54.2,41.1z M37.4,31
			c-0.6-1.1-1.3-2.2-1.9-3.2C35.3,27.8,35.1,28,35,28c-0.5-0.1-0.7,0.3-1,0.5c-0.3,0.3-0.5,0.5-0.8,0.8c-0.4,0.4-0.3,1,0.2,1.1
			c0.9,0.3,1,1.2,1.6,1.7c0.1,0.1,0.2,0.3,0.4,0.3c0.8,0.1,1.2-0.6,1.8-0.9C37.3,31.4,37.3,31.1,37.4,31L37.4,31z M22.6,18.1
			c0.5-0.4,0.5-0.5,0-1c-0.4-0.4-0.9-0.8-1.2-1.4c-0.5-0.8-1.1-1.4-1.7-2.1c-0.3-0.3-0.6-0.6-0.9-0.9c-0.3-0.4-0.6-0.8-0.9-1.1
			c-0.3-0.3-0.7-0.2-0.8,0.2c-0.1,0.1-0.2,0.3-0.3,0.4c-0.3,0.2-0.3,0.5,0,0.7c0.8,0.8,1.7,1.7,2.5,2.5c0.1,0.1,0.2,0.1,0.3,0.2
			c0.4,0.4,0.8,0.8,1.1,1.1c0.4,0.4,0.8,0.8,1.2,1.1C22.1,18,22.3,18,22.6,18.1L22.6,18.1z M28.3,40.2c0,0.2,0,0.5,0,0.8
			c0,0.2,0.1,0.4,0.2,0.5c0.2,0.1,0.4,0,0.6,0c0.2,0,0.3-0.1,0.5-0.2c0.5-0.1,0.9-0.2,1.4-0.3c0.4-0.1,0.9-0.3,1.3-0.5
			c0.1,0,0.2-0.1,0.2-0.1c0.3-0.5-0.1-1.2-0.7-1.2c-0.6,0-1.2,0-1.8,0c-0.2,0-0.4-0.1-0.5-0.2c-0.5-0.3-1.1,0-1.1,0.5
			C28.3,39.6,28.3,39.9,28.3,40.2L28.3,40.2z"/>
		<path d="M71.4,28.2c-0.2-1.2,0.7-1.9,1.5-2.6c0.2-0.2,0.7-0.3,1-0.4c0.3-0.1,0.8-0.4,1-0.2c0.7,0.3,1.6,0.1,2,0.9
			c0,0,0,0.1,0.1,0.1c0.9,0.5,0.9,1.4,0.8,2.3c0,0.2-0.1,0.5-0.3,0.6c-0.6,0.6-1,1.4-1.9,1.7c-0.6,0.2-1.1,0.3-1.6,0.2
			c-0.7-0.1-1.4-0.3-2-0.7c-0.3-0.2-0.5-0.7-0.6-1.1C71.3,28.8,71.4,28.5,71.4,28.2L71.4,28.2z"/>
		<path d="M43.2,38.5c0.3,0.3,0.2,0.6,0,1c-0.3,0.8-1,0.9-1.7,1.1c-0.5,0.1-0.9,0.1-1.3,0c-0.9-0.1-1.5-0.8-1.6-1.7
			c-0.1-0.8,0.3-1.4,0.7-1.8c0.4-0.5,1-1.2,1.9-1c0.2,0,0.4,0.1,0.6,0.2c0.2,0.1,0.3,0.2,0.5,0.3c0.5,0.2,0.5,0.7,0.7,1.1
			c0.1,0.2,0.1,0.5,0.2,0.7C43.2,38.5,43.2,38.5,43.2,38.5L43.2,38.5z"/>
	</g>
</g>
</svg>
