<?xml version="1.0" encoding="utf-8"?>
<!-- Generator: Adobe Illustrator 27.3.1, SVG Export Plug-In . SVG Version: 6.00 Build 0)  -->
<svg version="1.1"
	 id="svg2" xmlns:sodipodi="http://sodipodi.sourceforge.net/DTD/sodipodi-0.dtd" xmlns:rdf="http://www.w3.org/1999/02/22-rdf-syntax-ns#" xmlns:cc="http://creativecommons.org/ns#" xmlns:dc="http://purl.org/dc/elements/1.1/" xmlns:inkscape="http://www.inkscape.org/namespaces/inkscape" xmlns:svg="http://www.w3.org/2000/svg" inkscape:version="0.48.5 r10040" sodipodi:docname="menu_button.svg"
	 xmlns="http://www.w3.org/2000/svg" xmlns:xlink="http://www.w3.org/1999/xlink" x="0px" y="0px" viewBox="0 0 64 64"
	 style="enable-background:new 0 0 64 64;" xml:space="preserve">
<style type="text/css">
	.st0{fill:#FFFFFF;}
</style>
<sodipodi:namedview  bordercolor="#666666" borderopacity="1.0" id="base" inkscape:current-layer="layer1" inkscape:cx="50.452374" inkscape:cy="18.274589" inkscape:document-units="px" inkscape:pageopacity="0.0" inkscape:pageshadow="2" inkscape:window-height="1018" inkscape:window-maximized="1" inkscape:window-width="1920" inkscape:window-x="-8" inkscape:window-y="-8" inkscape:zoom="7.9195959" pagecolor="#ffffff" showgrid="false">
	</sodipodi:namedview>
<g>
	<path class="st0" d="M32.1,19.6c5.3,0,10.6,0,15.9,0c1.4,0,2.8,0,4.2,0c2,0,3.4-1.9,2.9-3.8c-0.3-1.5-1.6-2.4-3.2-2.4
		c-13.2,0-26.4,0-39.6,0c-0.1,0-0.3,0-0.4,0c-1.6,0.1-2.9,1.4-2.9,3c0,1.8,1.3,3.2,3.2,3.2C18.8,19.6,25.4,19.6,32.1,19.6z
		 M32.1,28.9c-5.6,0-11.1,0-16.7,0c-1.1,0-2.3,0-3.4,0c-1.9,0-3.4,1.8-2.9,3.7c0.3,1.5,1.6,2.4,3.2,2.4c13.2,0,26.4,0,39.6,0
		c0.1,0,0.3,0,0.4,0c1.6-0.1,2.9-1.4,2.9-3c0-1.8-1.3-3.2-3.2-3.2C45.4,28.9,38.7,28.9,32.1,28.9z M32.1,50.4c6,0,12,0,17.9,0
		c0.7,0,1.5,0,2.2,0c1.6-0.1,3-1.4,3-3.1c0-1.7-1.4-3.1-3.2-3.1c-13.3,0-26.6,0-39.8,0c-0.1,0-0.2,0-0.3,0c-1.6,0.1-2.9,1.4-2.9,3
		c0,1.8,1.3,3.2,3.2,3.2C18.8,50.4,25.4,50.4,32.1,50.4z"/>
	<path class="st0" d="M32.1,19.6c-6.6,0-13.2,0-19.9,0c-1.9,0-3.2-1.4-3.2-3.2c0-1.6,1.3-2.9,2.9-3c0.1,0,0.3,0,0.4,0
		c13.2,0,26.4,0,39.6,0c1.6,0,2.9,0.9,3.2,2.4c0.4,1.9-1,3.7-2.9,3.8c-1.4,0-2.8,0-4.2,0C42.7,19.6,37.4,19.6,32.1,19.6z"/>
	<path class="st0" d="M32.1,28.9c6.6,0,13.2,0,19.9,0c1.9,0,3.2,1.4,3.2,3.2c0,1.6-1.3,2.9-2.9,3c-0.1,0-0.3,0-0.4,0
		c-13.2,0-26.4,0-39.6,0c-1.6,0-2.9-0.9-3.2-2.4c-0.4-1.9,1-3.7,2.9-3.7c1.1,0,2.3,0,3.4,0C21,28.9,26.5,28.9,32.1,28.9z"/>
	<path class="st0" d="M32.1,50.4c-6.6,0-13.2,0-19.9,0c-1.9,0-3.2-1.4-3.2-3.2c0-1.6,1.3-2.9,2.9-3c0.1,0,0.2,0,0.3,0
		c13.3,0,26.6,0,39.8,0c1.8,0,3.2,1.3,3.2,3.1c0,1.6-1.3,3-3,3.1c-0.7,0-1.5,0-2.2,0C44,50.4,38,50.4,32.1,50.4z"/>
</g>
</svg>
