<?xml version="1.0" encoding="utf-8"?>
<!-- Generator: Adobe Illustrator 27.3.1, SVG Export Plug-In . SVG Version: 6.00 Build 0)  -->
<svg version="1.1"
	 id="svg3797" xmlns:sodipodi="http://sodipodi.sourceforge.net/DTD/sodipodi-0.dtd" xmlns:rdf="http://www.w3.org/1999/02/22-rdf-syntax-ns#" xmlns:cc="http://creativecommons.org/ns#" xmlns:dc="http://purl.org/dc/elements/1.1/" xmlns:inkscape="http://www.inkscape.org/namespaces/inkscape" xmlns:svg="http://www.w3.org/2000/svg" inkscape:export-filename="D:\dev\workspaces\potree\develop\resources\icons\volume.png" inkscape:export-xdpi="90" inkscape:export-ydpi="90" inkscape:version="0.92.2 (5c3e80d, 2017-08-06)" sodipodi:docname="volume.svg"
	 xmlns="http://www.w3.org/2000/svg" xmlns:xlink="http://www.w3.org/1999/xlink" x="0px" y="0px" viewBox="0 0 32 32"
	 style="enable-background:new 0 0 32 32;" xml:space="preserve">
<style type="text/css">
	.st0{fill:#CCCCCC;stroke:#000000;stroke-width:2;stroke-linejoin:bevel;}
	.st1{fill:#CCCCCC;stroke:#000000;stroke-width:2;}
	.st2{fill:#FFFFFF;stroke:#000000;stroke-width:1.0682;stroke-miterlimit:1.9583;}
</style>
<sodipodi:namedview  bordercolor="#666666" borderopacity="1.0" id="base" inkscape:current-layer="layer1" inkscape:cx="14.746608" inkscape:cy="16.700474" inkscape:document-units="px" inkscape:grid-bbox="true" inkscape:pageopacity="0.0" inkscape:pageshadow="2" inkscape:window-height="1377" inkscape:window-maximized="1" inkscape:window-width="2560" inkscape:window-x="-8" inkscape:window-y="-8" inkscape:zoom="31.672167" pagecolor="#ffffff" showgrid="true">
	<inkscape:grid  id="grid3805" type="xygrid"></inkscape:grid>
</sodipodi:namedview>
<g id="layer1" inkscape:groupmode="layer" inkscape:label="Layer 1">
	<path id="path3776" inkscape:connector-curvature="0" sodipodi:nodetypes="ccccc" class="st0" d="M28,6l-6,6v16l6-7V6z"/>
	<path id="path4436" inkscape:connector-curvature="0" class="st1" d="M5.5,12.5v15h16v-15H5.5z"/>
	<path id="path3774" inkscape:connector-curvature="0" sodipodi:nodetypes="ccccc" class="st0" d="M6,12l6-7h16l-7,7H6z"/>
	
		<path id="path3807-0-7-9-1" sodipodi:cx="11" sodipodi:cy="22" sodipodi:rx="6" sodipodi:ry="6" sodipodi:type="arc" class="st2" d="
		M13.9,5.1C13.9,6.7,12.6,8,11,8S8.1,6.7,8.1,5.1S9.4,2.1,11,2.1S13.9,3.4,13.9,5.1z"/>
	
		<path id="path3807-0-7-9-1-9" sodipodi:cx="11" sodipodi:cy="22" sodipodi:rx="6" sodipodi:ry="6" sodipodi:type="arc" class="st2" d="
		M29.9,5.1C29.9,6.7,28.6,8,27,8c-1.6,0-2.9-1.3-2.9-2.9s1.3-2.9,2.9-2.9C28.6,2.1,29.9,3.4,29.9,5.1z"/>
	
		<path id="path3807-0-7-9-1-8" sodipodi:cx="11" sodipodi:cy="22" sodipodi:rx="6" sodipodi:ry="6" sodipodi:type="arc" class="st2" d="
		M30,21c0,1.6-1.3,2.9-2.9,2.9c-1.6,0-2.9-1.3-2.9-2.9s1.3-2.9,2.9-2.9C28.7,18.1,30,19.4,30,21z"/>
	
		<path id="path3807-0-7-9-1-6" sodipodi:cx="11" sodipodi:cy="22" sodipodi:rx="6" sodipodi:ry="6" sodipodi:type="arc" class="st2" d="
		M8.9,11.9c0,1.6-1.3,2.9-2.9,2.9s-2.9-1.3-2.9-2.9S4.4,9,6,9S8.9,10.3,8.9,11.9z"/>
	
		<path id="path3807-0-7-9-1-5" sodipodi:cx="11" sodipodi:cy="22" sodipodi:rx="6" sodipodi:ry="6" sodipodi:type="arc" class="st2" d="
		M24.9,12.1c0,1.6-1.3,2.9-2.9,2.9c-1.6,0-2.9-1.3-2.9-2.9s1.3-2.9,2.9-2.9C23.6,9.1,24.9,10.4,24.9,12.1z"/>
	
		<path id="path3807-0-7-9-1-0" sodipodi:cx="11" sodipodi:cy="22" sodipodi:rx="6" sodipodi:ry="6" sodipodi:type="arc" class="st2" d="
		M8.9,27.1C8.9,28.7,7.6,30,6,30s-2.9-1.3-2.9-2.9s1.3-2.9,2.9-2.9S8.9,25.4,8.9,27.1z"/>
	
		<path id="path3807-0-7-9-1-2" sodipodi:cx="11" sodipodi:cy="22" sodipodi:rx="6" sodipodi:ry="6" sodipodi:type="arc" class="st2" d="
		M24.9,27.1c0,1.6-1.3,2.9-2.9,2.9c-1.6,0-2.9-1.3-2.9-2.9s1.3-2.9,2.9-2.9C23.6,24.1,24.9,25.4,24.9,27.1z"/>
</g>
</svg>
