<?xml version="1.0" encoding="utf-8"?>
<!-- Generator: Adobe Illustrator 27.3.1, SVG Export Plug-In . SVG Version: 6.00 Build 0)  -->
<svg version="1.1"
	 id="svg3797" xmlns:sodipodi="http://sodipodi.sourceforge.net/DTD/sodipodi-0.dtd" xmlns:rdf="http://www.w3.org/1999/02/22-rdf-syntax-ns#" xmlns:cc="http://creativecommons.org/ns#" xmlns:dc="http://purl.org/dc/elements/1.1/" xmlns:inkscape="http://www.inkscape.org/namespaces/inkscape" xmlns:svg="http://www.w3.org/2000/svg" inkscape:export-filename="D:\dev\workspaces\potree\develop\resources\icons\focus.png" inkscape:export-xdpi="90" inkscape:export-ydpi="90" inkscape:version="0.48.5 r10040" sodipodi:docname="focus.svg"
	 xmlns="http://www.w3.org/2000/svg" xmlns:xlink="http://www.w3.org/1999/xlink" x="0px" y="0px" viewBox="0 0 32 32"
	 style="enable-background:new 0 0 32 32;" xml:space="preserve">
<style type="text/css">
	.st0{fill:none;stroke:#000000;stroke-width:4;stroke-linecap:round;stroke-linejoin:round;}
	
		.st1{fill:#FFFFFF;fill-opacity:0;stroke:#000000;stroke-width:4;stroke-linecap:round;stroke-linejoin:round;stroke-miterlimit:3.6378;}
	.st2{fill:none;stroke:#FFFFFF;stroke-width:1.8189;stroke-linecap:round;stroke-linejoin:round;}
	.st3{fill:#757575;fill-opacity:0;stroke:#FFFFFF;stroke-width:2.7283;stroke-linecap:round;stroke-miterlimit:3.6378;}
</style>
<sodipodi:namedview  bordercolor="#666666" borderopacity="1.0" id="base" inkscape:current-layer="layer1" inkscape:cx="-3.8470599" inkscape:cy="14.606522" inkscape:document-units="px" inkscape:grid-bbox="true" inkscape:pageopacity="0.0" inkscape:pageshadow="2" inkscape:window-height="1138" inkscape:window-maximized="1" inkscape:window-width="1920" inkscape:window-x="-8" inkscape:window-y="-8" inkscape:zoom="22.395604" pagecolor="#ffffff" showgrid="true">
	<inkscape:grid  id="grid3805" type="xygrid"></inkscape:grid>
</sodipodi:namedview>
<g id="layer1" inkscape:groupmode="layer" inkscape:label="Layer 1">
	<path id="path4826" inkscape:connector-curvature="0" sodipodi:nodetypes="ccc" class="st0" d="M6.7,11.3V6.7h4.7"/>
	<g id="use4839" transform="matrix(0,-1,1,0,0.05476842,32.054764)">
		
			<path id="path4826_00000054230907120432862390000005885509782344031673_" inkscape:connector-curvature="0" sodipodi:nodetypes="ccc" class="st0" d="
			M11.3,25.3H6.7v-4.7"/>
	</g>
	<g id="use4841" transform="matrix(0,-1,1,0,0.05476842,32.054764)">
		<g id="use4839_00000127009766657164511700000007883032269128619413_" transform="matrix(0,-1,1,0,0.05476842,32.054764)">
			
				<path id="path4826_00000071524746440263604060000006346098175642755712_" inkscape:connector-curvature="0" sodipodi:nodetypes="ccc" class="st0" d="
				M25.3,20.7v4.7h-4.7"/>
		</g>
	</g>
	<g id="use4843" transform="matrix(0,-1,1,0,0.05476842,32.054764)">
		<g id="use4841_00000052785546913601165860000016712110015577206935_" transform="matrix(0,-1,1,0,0.05476842,32.054764)">
			<g id="use4839_00000096035219319062464610000016661467969653274537_" transform="matrix(0,-1,1,0,0.05476842,32.054764)">
				
					<path id="path4826_00000132058261428921413470000011337642308943823551_" inkscape:connector-curvature="0" sodipodi:nodetypes="ccc" class="st0" d="
					M20.7,6.7h4.7v4.7"/>
			</g>
		</g>
	</g>
	
		<path id="path4849" sodipodi:cx="16.5" sodipodi:cy="16.5" sodipodi:rx="6.5" sodipodi:ry="6.5" sodipodi:type="arc" class="st1" d="
		M20.7,16c0,2.4-1.9,4.3-4.3,4.3S12,18.4,12,16s1.9-4.3,4.3-4.3S20.7,13.6,20.7,16z"/>
	<path id="path4826-8" inkscape:connector-curvature="0" sodipodi:nodetypes="ccc" class="st2" d="M6.7,11.3V6.7h4.7"/>
	<g id="use4893" transform="matrix(0,-1,1,0,0.05476842,32.054764)">
		
			<path id="path4826-8_00000168088155815157124370000011272899688197426062_" inkscape:connector-curvature="0" sodipodi:nodetypes="ccc" class="st2" d="
			M11.3,25.3H6.7v-4.7"/>
	</g>
	<g id="use4913" transform="matrix(0,-1,1,0,0.05476842,32.054764)">
		<g id="use4893_00000179628788808466965890000015594524443560453291_" transform="matrix(0,-1,1,0,0.05476842,32.054764)">
			
				<path id="path4826-8_00000116222994299646557570000002577090060978087330_" inkscape:connector-curvature="0" sodipodi:nodetypes="ccc" class="st2" d="
				M25.3,20.7v4.7h-4.7"/>
		</g>
	</g>
	<g id="use4915" transform="matrix(0,-1,1,0,0.05476842,32.054764)">
		<g id="use4913_00000046323879809641805730000015850791266575667370_" transform="matrix(0,-1,1,0,0.05476842,32.054764)">
			<g id="use4893_00000031918081118755090600000013940569147233671093_" transform="matrix(0,-1,1,0,0.05476842,32.054764)">
				
					<path id="path4826-8_00000088827082131715289980000014789965833210307467_" inkscape:connector-curvature="0" sodipodi:nodetypes="ccc" class="st2" d="
					M20.7,6.7h4.7v4.7"/>
			</g>
		</g>
	</g>
	
		<path id="path4849-7" inkscape:export-xdpi="90" inkscape:export-ydpi="90" sodipodi:cx="16.5" sodipodi:cy="16.5" sodipodi:rx="6.5" sodipodi:ry="6.5" sodipodi:type="arc" class="st3" d="
		M20.7,16c0,2.4-1.9,4.3-4.3,4.3S12,18.4,12,16s1.9-4.3,4.3-4.3S20.7,13.6,20.7,16z"/>
</g>
</svg>
