<?xml version="1.0" encoding="utf-8"?>
<!-- Generator: Adobe Illustrator 26.2.1, SVG Export Plug-In . SVG Version: 6.00 Build 0)  -->
<svg version="1.1" id="Lager_1" xmlns="http://www.w3.org/2000/svg" xmlns:xlink="http://www.w3.org/1999/xlink" x="0px" y="0px"
	 viewBox="0 0 373.3 373.3" style="enable-background:new 0 0 373.3 373.3;" xml:space="preserve">
<style type="text/css">
	.st0{fill:#FFFFFF;}
</style>
<g>
	<path class="st0" d="M255.9,192.7c0,11.7-0.1,23.4,0.1,35.1c0,3.4-1.1,5.5-4.1,7.2c-20.5,11.7-40.9,23.5-61.3,35.3
		c-2.7,1.6-5.1,1.5-7.8-0.1c-20.6-11.9-41.1-23.8-61.8-35.6c-2.6-1.5-3.6-3.4-3.6-6.3c0.1-23.8,0.1-47.5,0-71.3
		c0-2.9,1.1-4.9,3.6-6.3c20.7-11.9,41.4-23.8,62-35.7c2.6-1.5,4.8-1.4,7.3,0c20.5,11.9,41,23.7,61.6,35.4c3,1.7,4.1,3.8,4.1,7.2
		C255.8,169.3,255.9,181,255.9,192.7z M246.1,164.5c-0.7,0.3-1.1,0.4-1.4,0.5c-17.2,9.9-34.5,19.8-51.7,29.8c-0.8,0.5-1.4,2-1.4,3
		c-0.1,19.3-0.1,38.7-0.1,58c0,0.7,0.1,1.3,0.2,2.1c0.6-0.3,0.9-0.4,1.2-0.5c17.2-9.9,34.3-19.7,51.4-29.7c0.9-0.5,1.6-2.1,1.6-3.2
		c0.1-10.5,0.1-21,0.1-31.6C246.1,183.6,246.1,174.2,246.1,164.5z M127.5,164.3c-0.1,1-0.2,1.4-0.2,1.8c0,19.6,0,39.2,0,58.8
		c0,1.7,0.8,2.3,2.1,3c16.7,9.6,33.4,19.2,50.1,28.8c0.7,0.4,1.4,0.7,2.2,1.1c0.1-0.6,0.1-1,0.1-1.3c0-19.7,0-39.4,0.1-59.1
		c0-1.7-0.7-2.4-2-3.1c-15.1-8.6-30.1-17.3-45.2-26C132.4,167.1,130.1,165.8,127.5,164.3z M132.5,155.6c0.5,0.4,0.7,0.6,0.9,0.7
		c17.2,9.9,34.5,19.9,51.7,29.8c1.5,0.9,2.4,0.4,3.7-0.3c13.2-7.6,26.4-15.2,39.5-22.8c4.2-2.4,8.3-4.8,12.7-7.3
		c-0.6-0.4-0.8-0.7-1.1-0.8c-17.2-9.9-34.3-19.8-51.5-29.6c-0.8-0.5-2.5-0.4-3.4,0.1c-6.8,3.8-13.6,7.8-20.4,11.7
		C153.9,143.2,143.3,149.3,132.5,155.6z"/>
	<path class="st0" d="M73,122.6c0-6.2-0.1-12.4,0-18.6c0.4-13.6,11.3-24.5,25-24.7c12.9-0.2,25.8-0.1,38.7,0c3.2,0,5.4,1.9,5.5,4.7
		c0.1,2.9-2.2,5-5.5,5c-12.2,0-24.3,0-36.5,0c-10.8,0-17.4,6.6-17.4,17.3c0,12.1,0,24.1,0,36.2c0,3.3-1.5,5.2-4.2,5.7
		c-3.1,0.5-5.6-1.8-5.6-5.3C72.9,136.1,72.9,129.4,73,122.6C72.9,122.6,73,122.6,73,122.6z"/>
	<path class="st0" d="M300.4,123c0,6.5,0,13,0,19.4c0,3.6-1.9,5.9-4.9,5.9c-3,0-4.9-2.3-4.9-5.9c0-12.1,0-24.1,0-36.2
		c0-10.6-6.6-17.2-17.2-17.2c-12.2,0-24.3,0-36.5,0c-4,0-6.4-2.8-5.4-6.2c0.6-2.2,2.1-3.6,4.5-3.6c13.8,0,27.6-0.3,41.4,0.2
		c12,0.4,22.5,11.5,23,23.6C300.5,109.6,300.3,116.3,300.4,123C300.3,123,300.3,123,300.4,123z"/>
	<path class="st0" d="M72.9,262.6c0-6.6,0-13.1,0-19.7c0-3.6,2-5.8,5-5.8c3,0.1,4.9,2.3,4.9,5.9c0,12.1,0,24.3,0,36.4
		c0,10.2,6.7,16.9,17,16.9c12.3,0,24.5,0,36.8,0c3.7,0,6.1,2.5,5.5,5.7c-0.5,2.5-2.1,4.1-4.7,4.1c-13.8,0-27.6,0.3-41.4-0.2
		c-12.1-0.5-22.5-11.6-22.9-23.6C72.8,275.8,73,269.2,72.9,262.6C73,262.6,73,262.6,72.9,262.6z"/>
	<path class="st0" d="M300.3,262.5c0,6.3,0.1,12.6,0,18.9c-0.4,13.5-11.3,24.5-24.8,24.7c-13,0.2-26,0.1-38.9,0.1
		c-3.2,0-5.4-2-5.4-4.8c-0.1-2.9,2.2-5,5.5-5c12.2,0,24.3,0,36.5,0c10.7,0,17.3-6.6,17.3-17.3c0-12.1,0-24.1,0-36.2
		c0-3.6,2.3-6,5.3-5.7c2.7,0.2,4.5,2.3,4.5,5.4C300.4,249.2,300.4,255.9,300.3,262.5C300.4,262.5,300.3,262.5,300.3,262.5z"/>
</g>
</svg>
